<svg aria-hidden="true" style="position: absolute; width: 0; height: 0; overflow: hidden;" version="1.1" xmlns="http://www.w3.org/2000/svg" xmlns:xlink="http://www.w3.org/1999/xlink">
<defs>
<symbol id="icon-close" viewBox="0 0 32 32">
<path d="M26.667 7.303l-1.97-1.97-7.808 7.808-7.808-7.808-1.97 1.97 7.808 7.808-7.808 7.808 1.97 1.97 7.808-7.808 7.808 7.808 1.97-1.97-7.808-7.808 7.808-7.808z"></path>
</symbol>
<symbol id="icon-person" viewBox="0 0 32 32">
<path d="M16 16c2.947 0 5.333-2.387 5.333-5.333s-2.387-5.333-5.333-5.333c-2.947 0-5.333 2.387-5.333 5.333s2.387 5.333 5.333 5.333zM16 18.667c-3.56 0-10.667 1.787-10.667 5.333v1.333c0 0.733 0.6 1.333 1.333 1.333h18.667c0.733 0 1.333-0.6 1.333-1.333v-1.333c0-3.547-7.107-5.333-10.667-5.333z"></path>
</symbol>
<symbol id="icon-phone" viewBox="0 0 32 32">
<path d="M24.882 19.773l-3.268-0.373c-0.785-0.090-1.557 0.18-2.11 0.733l-2.367 2.367c-3.641-1.853-6.626-4.825-8.478-8.478l2.38-2.38c0.553-0.553 0.823-1.325 0.733-2.11l-0.373-3.242c-0.154-1.299-1.248-2.277-2.56-2.277h-2.226c-1.454 0-2.663 1.209-2.573 2.663 0.682 10.987 9.469 19.761 20.443 20.443 1.454 0.090 2.663-1.119 2.663-2.573v-2.226c0.013-1.3-0.965-2.393-2.264-2.547z"></path>
</symbol>
<symbol id="icon-email" viewBox="0 0 32 32">
<path d="M26.667 5.333h-21.333c-1.467 0-2.653 1.2-2.653 2.667l-0.013 16c0 1.467 1.2 2.667 2.667 2.667h21.333c1.467 0 2.667-1.2 2.667-2.667v-16c0-1.467-1.2-2.667-2.667-2.667zM26.133 11l-9.427 5.893c-0.427 0.267-0.987 0.267-1.413 0l-9.427-5.893c-0.333-0.213-0.533-0.573-0.533-0.96 0-0.893 0.973-1.427 1.733-0.96l8.933 5.587 8.933-5.587c0.76-0.467 1.733 0.067 1.733 0.96 0 0.387-0.2 0.747-0.533 0.96z"></path>
</symbol>
<symbol id="icon-icon-send" viewBox="0 0 32 32">
<path d="M32 0l-32 18 10.227 3.788 15.773-14.788-11.998 16.186 0.010 0.004-0.012-0.004v8.814l5.735-6.691 7.265 2.691 5-28z"></path>
</symbol>
<symbol id="icon-check" viewBox="0 0 42 32">
<path d="M6.263 15.205l-0.22-0.21-3.307 3.132 11.651 11.114 24.477-23.351-3.285-3.134-21.192 20.197-8.124-7.75z"></path>
</symbol>
<symbol id="icon-close_40px" viewBox="0 0 32 32">
<path d="M23.733 10.304l-1.504-1.504-5.963 5.963-5.963-5.963-1.504 1.504 5.963 5.963-5.963 5.963 1.504 1.504 5.963-5.963 5.963 5.963 1.504-1.504-5.963-5.963 5.963-5.963z"></path>
</symbol>
<symbol id="icon-menu" viewBox="0 0 32 32">
<path d="M6.4 11.733v-2.133h19.2v2.133h-19.2zM6.4 17.067h19.2v-2.133h-19.2v2.133zM6.4 22.4h19.2v-2.133h-19.2v2.133z"></path>
</symbol>
<symbol id="icon-foma" viewBox="0 0 27 32">
<path d="M13.224 1.329c0.024 0.006 0.047 0.011 0.071 0.015 0.060 0.010 0.174 0.012 0.225 0.042 0.040 0.024 0.053 0.046 0.049 0.092l-0.295 3.325c-0.029 0.197-0.118 0.272-0.313 0.317-0.169 0.040-0.302 0.164-0.346 0.333-0.035 0.132-0.010 0.272 0.067 0.383 0.085 0.123 0.221 0.193 0.37 0.201l0.008 0h0.008c0.225 0 0.45-0.002 0.675-0.006 0.144-0.003 0.289-0.006 0.434-0.005 0.172 0.001 0.343 0.010 0.515 0.023 0.214 0.016 0.412-0.103 0.484-0.309 0.099-0.283-0.083-0.569-0.376-0.612-0.077-0.011-0.283-0.064-0.345-0.112-0.031-0.031-0.046-0.103-0.045-0.146l0.008-1.441 1.117 2.496c0.184 0.348 0.647 0.338 0.795-0.036l0.966-2.361 0.021 1.63c0 0.009 0.001 0.024 0 0.037-0.023 0.005-0.049 0.009-0.067 0.012-0.077 0.012-0.154 0.023-0.231 0.036-0.157 0.027-0.289 0.128-0.354 0.274-0.056 0.127-0.055 0.275 0.004 0.4 0.075 0.156 0.227 0.25 0.4 0.255 0.388 0.013 0.773 0.040 1.159 0.079 0.358 0.037 0.715 0.083 1.073 0.129 0.238 0.041 0.468-0.096 0.538-0.331 0.086-0.289-0.107-0.541-0.387-0.598-0.17-0.048-0.244-0.136-0.261-0.312l-0.187-3.217c-0.007-0.147-0.003-0.341 0.039-0.482 0.037-0.128 0.116-0.178 0.249-0.175 0.269 0.008 0.497-0.204 0.492-0.476-0.005-0.28-0.226-0.465-0.501-0.457l-1.519 0.014c-0.092-0.001-0.182 0.022-0.261 0.072-0.214 0.135-0.257 0.394-0.295 0.622-0.036 0.214-0.069 0.422-0.155 0.624l-0.737 1.732-0.842-2.035c-0.078-0.187-0.19-0.392-0.216-0.596-0.031-0.248-0.236-0.394-0.475-0.391l-1.521 0.018c-0.271 0.003-0.489 0.217-0.472 0.49 0.016 0.254 0.198 0.406 0.438 0.443zM13.072 5.73c-0.199-0.011-0.218-0.266-0.043-0.307 0.366-0.086 0.513-0.297 0.553-0.586l0.296-3.333c0.016-0.176-0.066-0.305-0.198-0.383-0.142-0.084-0.268-0.057-0.389-0.095-0.145-0.017-0.191-0.082-0.196-0.163s0.054-0.158 0.164-0.159l1.521-0.018c0.026-0 0.152 0 0.168 0.124 0.032 0.256 0.181 0.54 0.237 0.675l1.094 2.643c0.018 0.036 0.051 0.037 0.061-0.004l0.995-2.337c0.241-0.564 0.127-1.134 0.423-1.128l1.526-0.014c0.126-0.004 0.188 0.066 0.189 0.157 0.002 0.094-0.077 0.161-0.171 0.158-0.301-0.009-0.486 0.159-0.557 0.399-0.052 0.175-0.060 0.404-0.052 0.587l0.187 3.224c0.020 0.229 0.122 0.487 0.497 0.587 0.274 0.046 0.183 0.365-0.027 0.322-0.814-0.104-1.431-0.184-2.269-0.212-0.196-0.006-0.198-0.286-0.015-0.316 0.198-0.035 0.347-0.043 0.427-0.091 0.087-0.052 0.139-0.124 0.131-0.314l-0.036-2.794c-0.002-0.091-0.118-0.087-0.139-0.016l-1.408 3.442c-0.049 0.124-0.171 0.124-0.235 0.002l-1.534-3.43c-0.015-0.071-0.145-0.098-0.16 0.002l-0.013 2.522c-0.001 0.142 0.051 0.286 0.142 0.372 0.103 0.097 0.372 0.171 0.51 0.191 0.207 0.029 0.177 0.322-0.033 0.306-0.594-0.045-0.736-0.012-1.646-0.013z"></path>
<path d="M20.722 5.277c-0.046 0.106-0.117 0.222-0.242 0.235-0.033 0.003-0.065 0.005-0.099 0.005h-0.004l-0.004 0c-0.194 0.004-0.367 0.116-0.445 0.296-0.063 0.146-0.052 0.314 0.030 0.449 0.089 0.145 0.239 0.226 0.405 0.249 0.583 0.106 1.16 0.236 1.741 0.348 0.177 0.034 0.356-0.024 0.472-0.166 0.1-0.123 0.134-0.287 0.095-0.438-0.041-0.158-0.154-0.279-0.301-0.345-0.081-0.044-0.162-0.086-0.243-0.128-0.044-0.023-0.092-0.048-0.133-0.077-0.002-0.013 0.002-0.035 0.005-0.045l0.272-0.965 1.122 0.291 0.246 1.15c-0.078 0.009-0.155 0.014-0.24 0.018-0.239 0.009-0.44 0.176-0.48 0.414-0.044 0.261 0.12 0.489 0.369 0.557 0.274 0.076 0.549 0.146 0.824 0.217 0.266 0.069 0.531 0.14 0.792 0.22 0.298 0.091 0.591 0.192 0.881 0.304l0.012 0.004 0.012 0.004c0.195 0.058 0.403-0.005 0.528-0.169 0.193-0.251 0.104-0.593-0.168-0.736-0.223-0.132-0.483-0.349-0.548-0.61-0.466-1.87-0.949-3.735-1.4-5.608-0.026-0.108-0.059-0.215-0.096-0.32-0.054-0.16-0.169-0.295-0.345-0.319-0.123-0.017-0.242 0.028-0.333 0.113l-0.008 0.008-0.008 0.008c-0.028 0.030-0.080 0.091-0.115 0.113-0.027 0.016-0.087 0.026-0.116 0.030-0.184 0.029-0.375 0.038-0.561 0.042-0.093 0.002-0.183 0.046-0.243 0.12-0.019 0.023-0.033 0.048-0.046 0.076s-0.022 0.055-0.030 0.083c-0.020 0.065-0.036 0.133-0.052 0.2-0.040 0.169-0.089 0.337-0.144 0.502l-1.401 3.871zM23.116 3.715l-0.534-0.139 0.289-1.025 0.246 1.164zM20.376 5.827c0.033 0 0.075-0.001 0.131-0.007 0.275-0.027 0.422-0.244 0.502-0.432l1.406-3.883c0.064-0.195 0.115-0.373 0.153-0.533s0.062-0.239 0.072-0.236c0.231-0.004 0.432-0.019 0.604-0.046 0.216-0.035 0.268-0.084 0.413-0.241 0.071-0.067 0.139-0.025 0.175 0.085 0.037 0.106 0.067 0.204 0.088 0.293 0.451 1.873 0.93 3.74 1.401 5.611 0.075 0.315 0.343 0.596 0.697 0.804 0.217 0.108 0.092 0.4-0.117 0.338-0.989-0.384-1.679-0.516-2.527-0.751-0.232-0.064-0.181-0.358 0.036-0.365 0.202-0.011 0.268-0.016 0.44-0.045 0.135-0.037 0.148-0.11 0.11-0.267l-0.269-1.258c-0.017-0.095-0.077-0.17-0.164-0.193l-1.372-0.356c-0.064-0.017-0.106 0.004-0.13 0.089l-0.323 1.145c-0.031 0.11-0.033 0.275 0.106 0.375 0.095 0.068 0.227 0.126 0.425 0.235 0.241 0.097 0.156 0.411-0.066 0.368-0.438-0.085-1.22-0.254-1.752-0.35-0.311-0.040-0.258-0.375-0.039-0.379zM23.357 4.098c0.080 0.021 0.151-0.028 0.13-0.127l-0.5-2.368c-0.028-0.107-0.146-0.086-0.168-0.008l-0.571 2.026c-0.029 0.111-0.019 0.182 0.079 0.208l1.030 0.269z"></path>
<path d="M2.252 6.692c-0.135 0.075-0.235 0.199-0.261 0.355-0.024 0.145 0.023 0.293 0.126 0.397 0.115 0.118 0.283 0.162 0.443 0.119 0.002-0.001 0.004-0.001 0.007-0.002 0.742-0.217 1.489-0.397 2.24-0.573 0.151-0.035 0.273-0.142 0.327-0.288 0.094-0.253-0.038-0.515-0.277-0.598 0.762-0.333 1.371-0.94 1.708-1.721 0.177-0.411 0.274-0.865 0.254-1.311-0.019-0.421-0.143-0.836-0.405-1.169-0.386-0.492-0.945-0.669-1.525-0.663 0.047-0.072 0.075-0.16 0.074-0.259-0.003-0.314-0.239-0.491-0.537-0.488l-1.797 0.022c-0.293 0.004-0.551 0.187-0.536 0.506 0.012 0.264 0.209 0.455 0.469 0.466 0.009 0 0.017 0.001 0.026 0.001 0.011 0 0.023 0 0.036-0l-0.001 0.238c-0.945 0.276-1.723 0.918-2.086 1.86-0.311 0.807-0.273 1.802 0.307 2.473 0.374 0.433 0.877 0.62 1.409 0.634zM4.53 5.007v-2.656c0.006 0.005 0.012 0.010 0.019 0.015 0.149 0.127 0.236 0.374 0.28 0.559 0.071 0.297 0.083 0.624 0.057 0.927-0.026 0.313-0.097 0.649-0.232 0.935-0.033 0.072-0.075 0.147-0.125 0.219zM2.624 2.892v2.657c-0.117-0.102-0.2-0.29-0.242-0.412-0.112-0.323-0.146-0.706-0.128-1.048 0.019-0.354 0.115-0.878 0.37-1.197zM2.482 7.264c-0.168 0.045-0.285-0.197-0.075-0.306 0.202-0.116 0.361-0.221 0.424-0.284 0.107-0.106 0.102-0.24 0.102-0.366-2.942 0.706-3.141-3.655-0.003-4.344l0.002-0.511c0.001-0.182-0.033-0.214-0.112-0.255-0.053-0.028-0.149-0.017-0.242-0.021s-0.172-0.061-0.178-0.176c-0.007-0.137 0.118-0.178 0.228-0.179l1.797-0.022c0.128-0.001 0.226 0.046 0.228 0.184 0.001 0.114-0.106 0.18-0.235 0.172-0.145 0.005-0.198 0.060-0.197 0.207l0.002 0.271c3.19-0.766 2.912 3.658 0.005 4.354 0 0.102-0.010 0.288 0.061 0.339 0.089 0.065 0.302 0.040 0.423 0.056 0.183 0.017 0.188 0.265 0.027 0.302-0.774 0.181-1.471 0.347-2.257 0.577zM4.221 5.602c1.090-0.262 1.292-2.821 0.53-3.472-0.151-0.13-0.328-0.17-0.53-0.122v3.594zM2.933 2.334c-1.419 0.341-1.225 3.871 0 3.577v-3.577z"></path>
<path d="M9.921 0.381c-1.622 0.017-2.937 1.346-2.937 2.968s1.315 2.923 2.937 2.906c1.622-0.017 2.937-1.346 2.937-2.968s-1.315-2.923-2.937-2.906zM9.921 0.667c1.464-0.015 2.651 1.159 2.651 2.623s-1.187 2.663-2.651 2.678c-1.464 0.015-2.651-1.159-2.651-2.623s1.187-2.663 2.651-2.678zM9.1 1.867c0.412-0.538 1.359-0.416 1.584 0.085 0.048 0.116-0.222 0.38-0.29 0.464-0.127 0.234-0.004 0.429 0.285 0.283 0.191-0.096 0.239-0.263 0.352-0.32 0.167-0.084 0.318 0.069 0.398 0.199 0.11 0.179 0.207 0.462 0.207 0.684 0 0.288-0.097 0.559-0.262 0.783-0.064 0.086-0.169 0.153-0.281 0.114-0.141-0.049-0.298-0.35-0.492-0.34-0.172 0.009-0.258 0.197-0.17 0.33 0.071 0.063 0.192 0.176 0.248 0.25 0.11 0.144 0.131 0.237 0.029 0.365-0.001 0.001-0.002 0.003-0.003 0.004-0.402 0.473-1.079 0.424-1.514 0.055-0.022-0.018-0.026-0.019-0.045-0.043-0.001-0.001-0.002-0.003-0.003-0.004s-0.002-0.003-0.003-0.004l-0.029-0.044c-0.151-0.212 0.119-0.369 0.231-0.539 0.053-0.079 0.119-0.197 0.038-0.281-0.076-0.078-0.204-0.020-0.28 0.039-0.025 0.019-0.052 0.039-0.073 0.060l-0.13 0.136c-0.132 0.135-0.244 0.127-0.381 0.010-0.425-0.336-0.421-1.28 0.022-1.662 0.018-0.016 0.086-0.055 0.114-0.055 0.092-0.001 0.126 0.015 0.195 0.072 0.012 0.010 0.019 0.017 0.029 0.029 0.005 0.005 0.010 0.012 0.013 0.016 0.001 0.001 0.003 0.003 0.004 0.004s0.003 0.003 0.004 0.004c0.001 0.001 0.003 0.003 0.004 0.004 0.047 0.046 0.090 0.097 0.141 0.137 0.011 0.009 0.017 0.013 0.029 0.022 0.115 0.089 0.329 0.095 0.329-0.084 0-0.112-0.11-0.237-0.176-0.311-0.018-0.020-0.043-0.040-0.063-0.061-0.12-0.123-0.162-0.243-0.062-0.399zM9.257 2.036c0.091 0.088 0.327 0.274 0.34 0.599 0.012 0.283-0.293 0.559-0.715 0.301-0.113-0.069-0.153-0.156-0.212-0.205-0.288 0.428-0.196 0.942 0.020 1.227 0.178-0.174 0.458-0.486 0.829-0.224 0.036 0.062 0.077 0.073 0.097 0.214 0.021 0.145-0.036 0.259-0.106 0.376-0.039 0.065-0.157 0.241-0.218 0.272 0.197 0.261 1.004 0.306 1.193-0.003-0.111-0.099-0.249-0.239-0.313-0.392-0.087-0.207-0.080-0.346 0.055-0.511 0.016-0.020 0.019-0.023 0.041-0.040 0.187-0.151 0.516-0.088 0.633 0.043 0.001 0.001 0.003 0.003 0.004 0.004 0.026 0.029 0.036 0.041 0.069 0.063l0.131 0.122c0.368-0.286 0.294-0.955-0.005-1.237-0.048 0.039-0.201 0.241-0.385 0.317-0.088 0.037-0.173 0.065-0.278 0.051-0.11-0.016-0.245-0.099-0.297-0.192-0.158-0.282 0.131-0.619 0.303-0.829-0.36-0.287-0.935-0.171-1.187 0.048z"></path>
<path stroke-linejoin="miter" stroke-linecap="butt" stroke-miterlimit="22.9256" stroke-width="0.821" d="M9.405 26.393l-2.838-0.022 0.008-2.732c-0.009-0.003-1.681 0.035-1.976 0.010l0.004 1.366-2.859-0.024-0.011 0.667 2.678 0.004-0.007-0.226-2.341-0.011-0-0.227 2.531 0.051 0.017 1.058-2.532-0.026c-0.324-0.015-0.364-0.151-0.361 0.212 0.001 0.125 0.007 0.309 0.008 0.577 2.72 0 5.239 0 7.925 0h7.297l-0.055-0.642-6.029-0.028v-0.008h-0.020c-0.001-0.081-0.033-2.685-0.024-3.667 0.014-0.366 0.005-1.054-0.011-1.419l13.655 0.037-0-0.454-13.672 0.020c-0.008-0.081-0.025-1.269 0.008-1.344 0.186-0.050 1.578 0.003 1.889-0.012l11.739 0.114 0.003-0.134-13.637-0.069-0.015-0.147c0.053-0.025 6.034 0.026 6.83 0.040 0.573 0.010 1.191-0.017 1.749 0.009l5.098 0.036c-0.001-0.14-0.022-0.204-0.079-0.229l-13.541-0.042c-0.001 0.014-0.002 0.023-0.003 0.025-0.012-0.005-0.022-0.013-0.031-0.025h-0.006v-0.008c-0.084-0.137-0.024-0.602-0.023-0.743 0.004-0.286-0.004-0.578-0.007-0.865s-0.054-1.525-0.011-1.703l7.479 0.014 7.153-0.033 0.024-0.218c-4.887 0.051-9.8 0.1-14.666 0.083l0.002-0.514 0.004-0.083c1.323-0.009 1.617 0.017 2.912 0.008 2.852-4.107 6.655-1.441 7.786-0.003l4.285-0.012-0.005-0.484c-0.053 0.009-3.102-0.005-3.517-0.007-0.355-0.009-0.519-0.012-0.724-0.132-1.655-1.983-5.689-2.974-8.173 0.138l-4.545-0.001-0.005 0.441c0.004 0.124 0.282 0.124 0.385 0.107 0.214-0.036-0.020-0.112 0.055-0.232l0.176 0.004-0.003 0.651 1.215 0.002 0.057 4.765 0.007 4.838-0.997-0.023c-0.031-0.083-0.008-2.267-0.009-2.371l-0.018-2.949c-0.001-0.108 0.022-0.195 0.022-0.279-0-0.119-0.022-0.114-0.009-0.265-0.001-0.451-0.091-3.27-0.023-3.515 0.126-0.048 0.629 0.034 0.705-0.028l-0.019-0.068-0.931-0.008 0.014 0.322 0.046 3.894c0.005 0.201-0.032 0.389-0.015 0.609 0.028 0.362 0.008 1.87 0.012 2.362 0.003 0.306 0.041 1.537 0.015 1.784l0.017 0.497-2.567-0.019c-0.098-0.001-0.172-0.019-0.224 0.016-0.023 0.015-0.013 0.13-0.027 0.17l2.798 0.029 0.002 0.235-2.791-0.051 0 0.128 2.805 0.048 0.014 0.728h-0.072zM9.697 26.393l-0.007-0.001-0.022-0.719 1.015 0.007 0.008 0.714h-0.994zM6.321 25.282l0.013 1.056-0.447-0.003-0.008-1.058 0.442 0.005zM4.893 25.254l0.444-0.003 0.017 1.085-0.466 0 0.005-1.082zM5.885 24.002l0.414 0.001 0.006 0.99-0.424-0 0.004-0.992zM5.33 25.003l-0.422-0.005-0.003-1.007 0.423 0.003c0.004 0.007 0.017 0.946 0.003 1.009zM5.413 23.996l0.131 0.002 0.001 0.4 0.131 0.001-0.003-0.398 0.108 0 0.008 1.583-0.111 0 0.002-0.294-0.135-0.001 0.002 0.295-0.13-0.002-0.005-1.587zM10.662 15.067l-0.008 0.278-1.075-0.009 0.003-0.267 1.079-0.001z"></path>
<path d="M14.893 7.923l4.626 0.009 3.815 6.004 0.637 0.005-0.314-0.347-3.945-6.106-4.966-0.040-1.033 1.429c-0.473 0.603-3.097 4.576-3.107 4.638l0.517-0.078 3.771-5.515z"></path>
<path d="M16.92 27.072c1.593 0 5.842 0 8.825 0l-0.007-0.679-7.268-0-0.013-2.601c-0.572-0.323-1.299-0.166-1.678-0.033l0.009 2.639c0.007 0.294 0.054 0.347 0.132 0.674z"></path>
<path d="M1.793 8.827l-0.015 4.279c-0.073 0.152-0.081 0.378-0.036 0.543 0.244-0.001 0.388-0.47 0.481-0.662 0.468-0.973 0.322-2.568 0.681-2.924 0.2-0.198 0.401-0.394 0.599-0.594 0.685-0.694 0.502-0.523 1.812-0.524 0.385-0 0.77 0.008 1.155-0.005 0.484-0.016 0.522-0.008 0.831 0.341 0.033 0.038 0.388 0.441 0.437 0.424v0c0.083 0.094 0.22 0.225 0.263 0.281 0.205 0.266 0.181 0.104 0.247 0.484 0.073 0.422 0.172 0.855 0.229 1.28 0.121 0.927 0.155 0.858 0.554 1.652 0.041 0.081 0.085 0.171 0.153 0.23 0.155 0.134 0.052 0.108 0.101 0.28 0.022 0.011 1.492 0.018 1.495 0.016l0.342-0.489-0.477 0.009 3.152-4.641-12.004 0.021z"></path>
<path d="M4.312 13.495c0.041-0.248 0.238-0.056 0.312-0.018 0.207 0.106 0.074-0.224 0.334-0.144 0.11 0.033 0.059 0.303 0.053 0.396 0.056 0.428 0.374 0.248 0.934 0.188 0.033-0.107 0.031-0.259-0.012-0.363-0.041-0.012-0.025 0.101-0.126 0.168-0.105-0.032-0.019-0.096-0.171-0.201-0.042-0.029-0.037-0.097-0.015-0.136 0.116-0.016 0.175 0.036 0.265 0.038 0.134 0.003 0.142-0.096 0.28-0.060 0.084 0.539-0.116 0.547 0.219 0.605 0.067-0.026 0.539-0.012 0.674-0.020 0.337-0.020 0.323-0.060 0.477 0.212 0.192 0.338 0.077 0.663 0.146 0.923 0.023 0.086 0.019 0.131-0.037 0.229l-4.191 0.009c-0.056-0.090-0.034-0.55-0.031-0.675 0.007-0.237 0.021-0.371 0.122-0.587 0.114-0.244 0.897-0.028 1.164-0.14 0.042-0.059 0.032-0.242-0.010-0.275l-0.172 0.075c-0.062-0.046-0.014-0.090-0.059-0.124-0.064-0.048-0.092 0.029-0.154-0.1zM3.205 24.688c0.234 0.068 0.188-0.112 0.184-0.259l0.025-0.89c0.001-0.017 0.072-0.359 0.075-0.365 0.1-0.044 0.39-0.031 0.504-0.013 0.112 0.184-0.034 0.133 0.035 0.253 0.101-0.028 0.071-0.091 0.063-0.197-0.009-0.123 0.029-0.183-0.026-0.275-0.208-0.089-0.106 0.059-0.318 0.059l-0.352-0.118 0.055-7.394 4.304 0.010-0.004 9.285 0.136 0.004-0.047-8.678c0.015-0.026 0.064-0.077 0.080-0.090 0.076-0.063 0.186 0.014 0.266-0.014 0.030-0.024 0.269-0.13 0.124-0.263-0.144 0.052-0.392 0.036-0.473-0.060l-0.008-1.56c0.027-0.162-0.067-0.108-0.196-0.098-0.144 0.011-0.116-0.121-0.175-0.276-0.069-0.18-0.188-1.095-0.384-0.226-0.144 0.029-0.005 0.211-0.215 0.141-0.271-0.090-0.267 0.076-0.412 0.056-0.164-0.023-0.138-0.251 0.006-0.336 0.12-0.071 0.398-0.046 0.47-0.13 0.154-0.177-0.906-0.097-0.979-0.094-0.406 0.019-0.821 0.003-1.231 0.008-0.087 0.001-0.515-0.040-0.551 0.032-0.048 0.095 0.209 0.266 0.051 0.407-0.435 0.389-0.225-0.592-0.514-0.194-0.514 1.395-0.611-0.219-0.659 0.841-0.014 0.312 0.035 0.174 0.143 0.22 0.168 0.072 0.082 0.352 0.067 0.493-0.056 0.516 0.152 0.875-0.265 0.814-0.199-0.029-0.126 0.111-0.039 0.19 0.153 0.14 0.274-0.059 0.341 0.013 0.056 0.060-0.063 8.102-0.082 8.705z"></path>
<path d="M20.577 8.827l2.858 4.43 2.302 0.019c-0.003-1.365-0.056-3.094-0.059-4.459l-5.102 0.009z"></path>
<path d="M4.755 9.209c-0.108-0-0.445-0.016-0.525 0.006-0.294 0.211-0.060 0.416-0.236 0.643-0.371 0.297-0.788 0.671-0.849 1.214-0.101 0.891-0.159 1.772-0.617 2.479-0.138 0.213-0.164 0.212-0.158 0.485 0.015 0.739-0.665-0.013-0.633 0.524 0.018 0.303 0.043 0.294-0.015 0.609-0.040 0.215 0.159 0.116 0.29 0.065 0.517-0.2-0.358-0.15 0.055-0.396 0.128-0.076 0.266-0.035 0.377-0.209 0.229-0.36-0.274-0.136 0.396-1.429 0.206-0.397 0.197-0.539 0.269-0.972 0.056-0.336 0.127-0.755 0.159-1.089 0.041-0.422 0.182-0.501 0.456-0.791 0.137-0.145 0.474-0.557 0.637-0.61 0.184-0.060 1.383-0.057 1.678-0.037 0.565 0.040 0.364-0.249 0.831 0.273 0.179 0.2 0.426 0.431 0.621 0.623 0.221 0.218 0.242 0.637 0.295 0.943 0.158 0.922 0.122 1.22 0.546 1.957 0.075 0.131 0.132 0.309 0.212 0.417 0.138 0.186 0.115-0.037 0.068-0.148-0.107-0.255-0.322-0.544-0.438-0.826-0.155-0.376-0.255-1.774-0.378-2.121-0.073-0.207-0.414-0.506-0.574-0.678-0.116-0.125-0.126-0.164-0.096-0.329 0.021-0.122-0.149-0.237-0.189-0.531-0.168-0.14-1.834-0.071-2.181-0.071z"></path>
<path d="M14.734 24.839l0.679-0.003 0.002 1.090-0.687-0 0.007-1.088zM15.49 24.839l0.639-0.003 0.001 1.094-0.645-0.004 0.005-1.087zM15.486 24.689l-0.001-0.997 0.645 0.001-0.005 0.996-0.639-0zM14.731 23.692l0.679 0 0.001 0.997-0.678-0.003-0.002-0.996zM14.597 23.047l0.005 3.143 1.642 0.012 0.004-3.154-1.65-0.001z"></path>
<path d="M25.389 24.748l0.349 0.008c-0.008-0.806 0.027-9.285-0.015-9.334l-0.378-0 0.044 9.326z"></path>
<path d="M1.831 15.578c-0.027-0.022-0.124-0.159-0.156-0.111-0.054 0.083 0.085 0.454 0.093 0.588l0.009 0.702-0.011 7.929 0.733 0.003 0.002-0.265-0.269 0 0.046-8.875c0.001-0.129-0.331 0.128-0.448 0.030z"></path>
<path d="M3.967 17.192l0.039-0.038c0.19 0.001 0.38 0.003 0.571 0.004 0.044 0.011 0.069 0.033 0.073 0.072l-0.018 1.778c-0.076 0.042-0.592 0.032-0.683 0.003-0.029-0.238 0.017-0.485-0.005-0.709-0.008-0.079 0.021-1.11 0.024-1.112zM3.862 15.95l-0.019 1.553c0.029 0.271-0.061 1.439 0.015 1.607 0.163 0.067 0.278 0.025 0.424 0.025 0.205 0.001 0.216 0.057 0.463-0.014l0.033-3.071c0.001-0.051 0.003-0.077-0.068-0.103-0.114-0.042-0.778-0.026-0.847 0.003z"></path>
<path d="M7.048 19.037c-0.155 0.037-0.505 0.037-0.664 0.011-0.044-0.194-0.007-0.656-0.016-0.922l0.007-0.932c0.006-0.026 0.022-0.033 0.046-0.032l0.602 0.016c0.040 0.005 0.051 0.025 0.058 0.052l-0.033 1.806zM6.329 19.176c0.115 0.028 0.765 0.040 0.86 0 0.059-0.159 0.014-1.647 0.014-1.941-0-0.291-0.009-0.566-0.023-0.841l0.011-0.37c-0.004-0.028-0.043-0.064-0.059-0.065l-0.434-0.009c-0.086 0.008-0.304-0.026-0.396 0.011-0.016 0.007-0.028 0.015-0.035 0.026l0.013 0.842c0.001 0.379-0.047 1.006-0.045 1.449 0.001 0.204-0.055 0.773 0.096 0.898z"></path>
<path d="M5.843 17.198c0.043 0.146-0.020 0.703-0.006 0.927 0.016 0.25-0.008 0.303 0.003 0.43 0.057 0.7 0.038 0.438-0.375 0.477-0.396 0.037-0.303 0.028-0.304-0.957l-0.004-0.84c0.015-0.143 0.121-0.055 0.308-0.078 0.127-0.016 0.272-0.029 0.378 0.041zM5.072 19.114c0.106 0.070 0.755 0.068 0.885 0.033 0.112-0.276-0.010-1.916-0.013-2.395-0.001-0.207 0.077-0.625 0.003-0.802-0.128-0.033-0.362-0.032-0.493-0.016-0.165 0.020-0.398-0.051-0.416 0.132-0.006 0.062 0.025 0.146 0.029 0.228 0.033 0.689-0.118 2.537 0.004 2.819z"></path>
<path d="M14.59 21.523l0.005 1.342 0.146-0c-0.001-0.15-0.002-0.3-0.003-0.45 0.001-0.039 0.017-0.046 0.052-0.051l0.318-0.003c0.016 0.001 0.021 0.007 0.022 0.019l0.003 0.105 0.116-0.001 0.002-0.102c0-0.008 0.003-0.020 0.025-0.021l0.312 0c0.022-0.003 0.024 0.014 0.025 0.024l0.004 0.092 0.116-0.002c-0-0.029-0-0.057-0-0.086 0.002-0.015 0.010-0.025 0.024-0.025l0.316-0c0.024 0.001 0.027 0.010 0.035 0.030l0.003 0.451 0.131-0-0.008-1.32-1.645-0.001zM15.488 21.681h0.658v0.517h-0.658v-0.517zM14.733 21.678h0.682v0.517h-0.682v-0.517z"></path>
<path d="M3.502 21.692c0.002 0.004 0.004 0.007 0.007 0.010-0.037 0.055 0.056 0.1 0.126 0.106 0.164 0.014 0.071-0.039 0.177 0.087 0.044 0.052 0.141 0.106 0.162 0.148-0.144 0.091-0.346-0.203-0.458-0.094 0.003 0.098 0.042 0.168 0.091 0.252 0.031 0.040-0.089 0.018-0.113 0.157 0.118 0.221 0.238 0.009 0.334 0.296 0.075 0.225 0.259 0.135 0.218 0.383-0.165 0.221-0.25 0.038-0.404-0.024-0.067 0.032-0.054 0.078-0.096 0.090-0.044 0.013-0.032-0.045-0.113 0.012l0.019 0.305c0.071 0.048 0.42 0.053 0.469-0.015-0.079-0.070-0.42 0.095-0.393-0.119 0.014-0.113 0.388-0.097 0.467-0.070 0.070 0.111 0.004 0.184 0.091 0.242 0.145-0.054 0.090-0.246 0.087-0.378-0.011-0.491 0.094-0.437-0.138-0.54 0.069-0.055 0.125-0.052 0.136-0.156-0.114-0.075-0.182 0.035-0.276 0.018-0.041-0.076-0.039-0.134 0.002-0.211 0.089-0.007 0.074 0.095 0.174 0.068 0.128-0.328-0.079-0.296-0.089-0.449 0.151-0.153 0.17-0.013 0.203 0.104-0.011 0.031-0.008 0.067 0.020 0.113 0.014 0 0.026-0.002 0.035-0.005 0.015 0.011 0.033 0.016 0.056 0.010 0.012-0.032 0.014-0.057 0.012-0.081 0.011-0.009 0.027-0.017 0.049-0.022 0.093 0.056 0.106 0.114 0.216 0.131 0.205-0.132-0.143-0.12-0.166-0.23 0.060-0.112 0.186-0.032 0.273-0 0.082 0.029 0.14-0.079 0.267-0.102 0.126 0.048 0.269 0.339 0.441 0.152l-0.205-0.089c0.335-0.138 0.32 0.040 0.507 0.118 0.147-0.132-0.072-0.121 0.258-0.122 0.266-0.001 0.071 0.074 0.202 0.163 0.112-0.056 0.096-0.148 0.242-0.175 0.104-0.019 0.312-0.024 0.404 0.023 0.029 0.115-0.044 0.148-0.003 0.26 0.17 0.041 0.072-0.467 0.314-0.222-0.010 0.153-0.218 0.12-0.089 0.449 0.1 0.027 0.084-0.076 0.174-0.068 0.041 0.076 0.043 0.135 0.002 0.211-0.095 0.016-0.163-0.094-0.276-0.018 0.011 0.103 0.068 0.101 0.136 0.156-0.232 0.103-0.127 0.049-0.138 0.54-0.003 0.132-0.058 0.323 0.087 0.378 0.087-0.057 0.021-0.131 0.091-0.242 0.079-0.027 0.453-0.043 0.467 0.070 0.027 0.214-0.314 0.049-0.393 0.119 0.048 0.068 0.398 0.062 0.468 0.015l0.019-0.305c-0.081-0.057-0.069 0-0.113-0.012-0.042-0.012-0.029-0.058-0.096-0.090-0.154 0.062-0.239 0.245-0.404 0.024-0.041-0.248 0.143-0.158 0.218-0.383 0.096-0.287 0.216-0.075 0.334-0.296-0.024-0.139-0.144-0.118-0.113-0.157 0.048-0.084 0.088-0.154 0.091-0.252-0.111-0.11-0.313 0.184-0.458 0.094 0.021-0.043 0.117-0.096 0.162-0.148 0.106-0.125 0.013-0.072 0.177-0.087 0.080-0.007 0.192-0.066 0.097-0.133-0.065-0.047-0.82-0.066-0.925-0.068-0.109-0.002-0.205-0.028-0.31-0.003-0.134 0.032-0.116 0.055-0.269 0.032-0.223-0.033-0.423-0.026-0.649-0.052-0.258-0.030-0.378 0.079-0.604 0.023-0.076-0.019-0.147-0.028-0.215-0.033v-0l-0.003 0c-0.145-0.011-0.282-0.002-0.445-0.010-0.104-0.005-0.563 0.044-0.625 0.102zM4.309 21.765c0.005 0.002 0.009 0.004 0.014 0.006-0.007 0.012-0.021 0.023-0.039 0.036 0.001-0.011 0.003-0.022 0.006-0.034 0.006-0.003 0.012-0.006 0.019-0.008z"></path>
<path d="M4.666 20.013c0 0.092 0.015 1.035 0.008 1.070-0.107 0.046-0.587 0.033-0.713 0.006-0.016-0.052 0.038-1 0.049-1.052l0.656-0.024zM3.857 21.216c0.131 0.032 0.821 0.049 0.916-0.009 0.044-0.108-0.011-0.881-0.011-1.074-0.002-0.646 0.142-0.628-0.48-0.636-0.561-0.008-0.45-0.16-0.444 1.22 0.001 0.186-0.057 0.365 0.019 0.499z"></path>
<path d="M23.56 13.476l-0.001 0.462 2.169 0.015 0.008-0.495z"></path>
<path d="M7.053 20.544l0.014 0.57c-0.106 0.028-0.581 0.026-0.688 0-0.056-0.182 0.033-0.71-0.001-0.97l0.566 0.059c0.081 0.008 0.087 0.167 0.109 0.341zM6.278 21.238c0.098 0.087 1.016 0.067 1.102-0.004-0.115-0.11-0.119 0.015-0.159-0.134l-0.013-1.566-0.93 0.005c-0.052 0.053-0.072 1.604-0.001 1.699z"></path>
<path d="M5.18 21.11c-0.047-0.151-0.035-0.915-0.009-1.093 0.261-0.026 0.707 0.010 0.714 0.009-0.070 0.403 0.012 0.691-0.015 1.090l-0.69-0.007zM5.948 21.238c0.084-0.103 0.033-0.286 0.032-0.597-0.001-0.229-0.002-0.457-0.003-0.686-0.001-0.332 0.097-0.458-0.227-0.421-0.137 0.016-0.583-0.041-0.663 0.026-0.068 0.056-0.032 0.537-0.032 0.649 0.003 0.645-0.173 1.088 0.225 1.044 0.213-0.024 0.456 0.023 0.668-0.015z"></path>
<path d="M25.629 25.664l0 0.404c0 0.016 0.092-0.002 0.105 0.016l0.002-0.955-1.322-0.003-0.007 0.233 1.225 0.013 0.001 0.116-1.224 0.001-0.007 0.169 1.227 0.007z"></path>
<path d="M7.462 24.65c-0.201 0.008-0.558 0.107-0.322-0.409 0.282-0.012 0.359 0.166 0.322 0.409zM6.944 24.676c-0.069 0.048-0.286 0.031-0.381 0.075 0.217 0.025 0.882 0.080 1.040 0.024-0.005-0.242-0.003-0.486-0.004-0.728-0.001-0.44 0.059-0.327-0.372-0.376-0.387-0.044-0.263-0.018-0.272 0.481-0.002 0.11 0.059 0.422-0.011 0.525z"></path>
<path d="M3.722 24.041c0.129 0.006 0.216 0.035 0.243 0.167 0.016 0.080 0.041 0.309 0.028 0.389-0.104 0.032-0.314 0.011-0.402-0.036-0.008-0.033 0.011-0.224 0.013-0.285 0.007-0.135 0.032-0.142 0.117-0.234zM3.495 24.682c0.087 0.065 0.515 0.056 0.626 0.017-0.039-0.289-0.048-0.267-0.040-0.627 0.010-0.46 0.112-0.452-0.204-0.448-0.384 0.004-0.409-0.081-0.406 0.322 0.001 0.161-0.036 0.621 0.025 0.737z"></path>
<path d="M5.143 11.009l0.018 0.276 0.636 0.002-0.021-0.294c-0.084-0.204-0.547-0.2-0.633 0.017z"></path>
<path d="M6.59 23.385c-0.133-1.177-1.885-1.309-1.992 0.019l1.992-0.019z"></path>
<path d="M16.585 21.94l0.003 1.105 1.021-0.321 1.022 0.323-0-1.107z"></path>
<path d="M12.908 24.839l0.679-0.003 0.002 1.090-0.687-0 0.007-1.088zM13.664 24.839l0.639-0.003 0.001 1.094-0.645-0.004 0.006-1.087zM13.659 24.689l-0.001-0.997 0.645 0.001-0.005 0.996-0.639-0zM12.905 23.692l0.679 0 0.001 0.997-0.678-0.003-0.002-0.996zM12.771 23.047l0.005 3.143 1.642 0.012 0.004-3.154-1.65-0.001z"></path>
<path d="M12.763 21.523l0.005 1.342 0.146-0c-0.001-0.15-0.002-0.3-0.003-0.45 0.001-0.039 0.017-0.046 0.052-0.051l0.318-0.003c0.016 0.001 0.021 0.007 0.022 0.019l0.003 0.105 0.116-0.001 0.002-0.102c0-0.008 0.003-0.020 0.025-0.021l0.312 0c0.022-0.003 0.024 0.014 0.025 0.024l0.004 0.092 0.116-0.002c-0-0.029-0-0.057-0-0.086 0.002-0.015 0.010-0.025 0.024-0.025l0.316-0c0.024 0.001 0.027 0.010 0.035 0.030l0.003 0.451 0.131-0-0.008-1.32-1.644-0.001zM13.662 21.681h0.658v0.517h-0.658v-0.517zM12.906 21.678h0.682v0.517h-0.682v-0.517z"></path>
<path d="M11.126 24.839l0.679-0.003 0.002 1.090-0.687-0 0.007-1.088zM11.883 24.839l0.639-0.003 0.001 1.094-0.645-0.004 0.006-1.087zM11.878 24.689l-0.001-0.997 0.645 0.001-0.005 0.996-0.639-0zM11.124 23.692l0.679 0 0.001 0.997-0.678-0.003-0.002-0.996zM10.99 23.047l0.005 3.143 1.642 0.012 0.004-3.154-1.65-0.001z"></path>
<path d="M10.982 21.523l0.005 1.342 0.146-0c-0.001-0.15-0.002-0.3-0.003-0.45 0.001-0.039 0.017-0.046 0.052-0.051l0.318-0.003c0.016 0.001 0.021 0.007 0.022 0.019l0.003 0.105 0.116-0.001 0.002-0.102c0-0.008 0.003-0.020 0.025-0.021l0.312 0c0.022-0.003 0.024 0.014 0.025 0.024l0.004 0.092 0.116-0.002c-0-0.029-0-0.057-0-0.086 0.002-0.015 0.010-0.025 0.024-0.025l0.316-0c0.024 0.001 0.027 0.010 0.035 0.030l0.003 0.451 0.131-0-0.008-1.32-1.644-0.001zM11.881 21.681h0.658v0.517h-0.658v-0.517zM11.125 21.678h0.682v0.517h-0.682v-0.517z"></path>
<path d="M22.714 24.822l0.679-0.003 0.002 1.090-0.687-0 0.006-1.088zM23.47 24.823l0.639-0.003 0.001 1.094-0.645-0.004 0.006-1.087zM23.466 24.672l-0.001-0.997 0.645 0.001-0.005 0.996-0.639-0zM22.711 23.675l0.679 0 0.001 0.997-0.678-0.003-0.002-0.996zM22.577 23.030l0.005 3.143 1.642 0.012 0.004-3.154-1.65-0.001z"></path>
<path d="M22.57 21.506l0.005 1.342 0.146-0c-0.001-0.15-0.002-0.3-0.003-0.451 0-0.039 0.017-0.046 0.052-0.051l0.318-0.003c0.016 0.001 0.021 0.007 0.022 0.019l0.003 0.105 0.116-0.001 0.002-0.102c0-0.008 0.003-0.020 0.025-0.021l0.312 0c0.022-0.003 0.024 0.014 0.025 0.024l0.004 0.092 0.116-0.002c-0-0.029-0-0.057-0-0.086 0.002-0.015 0.010-0.025 0.024-0.025l0.316-0c0.024 0.001 0.027 0.010 0.035 0.030l0.003 0.451 0.131-0-0.008-1.32-1.644-0.001zM23.469 21.664h0.658v0.517h-0.658v-0.517zM22.713 21.661h0.682v0.517h-0.682v-0.517z"></path>
<path d="M20.888 24.822l0.679-0.003 0.002 1.090-0.687-0 0.006-1.088zM21.644 24.823l0.639-0.003 0.001 1.094-0.645-0.004 0.006-1.087zM21.639 24.672l-0.001-0.997 0.645 0.001-0.005 0.996-0.639-0zM20.885 23.675l0.679 0 0.001 0.997-0.678-0.003-0.002-0.996zM20.751 23.030l0.005 3.143 1.642 0.012 0.004-3.154-1.65-0.001z"></path>
<path d="M20.744 21.506l0.005 1.342 0.146-0c-0.001-0.15-0.002-0.3-0.003-0.451 0-0.039 0.017-0.046 0.052-0.051l0.318-0.003c0.016 0.001 0.021 0.007 0.022 0.019l0.003 0.105 0.116-0.001 0.002-0.102c0-0.008 0.003-0.020 0.025-0.021l0.312 0c0.022-0.003 0.024 0.014 0.025 0.024l0.004 0.092 0.116-0.002c-0-0.029-0-0.057-0-0.086 0.002-0.015 0.010-0.025 0.024-0.025l0.316-0c0.024 0.001 0.027 0.010 0.035 0.030l0.003 0.451 0.131-0-0.008-1.32-1.644-0.001zM21.642 21.664h0.658v0.517h-0.658v-0.517zM20.887 21.661h0.682v0.517h-0.682v-0.517z"></path>
<path d="M19.107 24.822l0.679-0.003 0.002 1.090-0.687-0 0.006-1.088zM19.863 24.823l0.639-0.003 0.001 1.094-0.645-0.004 0.006-1.087zM19.858 24.672l-0.001-0.997 0.645 0.001-0.005 0.996-0.639-0zM19.104 23.675l0.679 0 0.001 0.997-0.678-0.003-0.002-0.996zM18.969 23.030l0.005 3.143 1.642 0.012 0.004-3.154-1.65-0.001z"></path>
<path d="M18.963 21.506l0.005 1.342 0.146-0c-0.001-0.15-0.002-0.3-0.003-0.451 0-0.039 0.017-0.046 0.052-0.051l0.318-0.003c0.016 0.001 0.021 0.007 0.022 0.019l0.003 0.105 0.116-0.001 0.002-0.102c0-0.008 0.003-0.020 0.025-0.021l0.312 0c0.022-0.003 0.024 0.014 0.025 0.024l0.004 0.092 0.116-0.002c-0-0.029-0-0.057-0-0.086 0.002-0.015 0.010-0.025 0.024-0.025l0.316-0c0.024 0.001 0.027 0.010 0.035 0.030l0.003 0.451 0.131-0-0.008-1.32-1.644-0.001zM19.861 21.664h0.658v0.517h-0.658v-0.517zM19.105 21.661h0.682v0.517h-0.682v-0.517z"></path>
<path d="M24.358 14.98h0.136v11.501h-0.136v-11.502z"></path>
<path d="M6.991 12.134v0.787h0.005c0.008 0.188-0.057 0.094-0.232 0.108l-2.732-0.030-0-0.745c-0.013-0.242-0.001-0.34 0.159-0.548 0.132-0.171 0.265-0.259 0.48-0.309l0.705 0.001c0.136 0.004 0.273 0.013 0.407 0.001 0.156-0.015 0.21 0.017 0.341 0.004 0.195-0.019 0.432 0.012 0.576 0.162 0.067 0.070 0.273 0.384 0.29 0.475 0.008 0.041 0.008 0.072 0.002 0.094zM6.855 12.92v-0.753c-0.112-0.039-0.258-0.144-0.311-0.158-0.133 0.060-0.102 0.158-0.264 0.079-0.052-0.131-0.008-0.463-0.076-0.59-0.102-0.051-0.164-0.030-0.237 0.055-0.061 0.205 0.036 0.736-0.047 0.871-0.169-0.099 0.072-0.429-0.318-0.339-0.139 0.032-0.067-0.079-0.378-0.046-0.111 0.012-0.057 0.070-0.164 0.047-0.061-0.13 0.113-0.751-0.263-0.565-0.121 0.060-0.019 0.635-0.081 0.728-0.133-0.097 0.018-0.121-0.062-0.249-0.112 0.004-0.128 0.082-0.206 0.168-0.114 0.126-0.129 0.024-0.266 0.113l0 0.625 2.672 0.014z"></path>
<path d="M11.131 17.681l0.679-0.003 0.002 1.052-0.687-0 0.007-1.049zM11.881 16.076h0.305v0.352h-0.305v-0.352zM12.257 16.076h0.269v0.352h-0.269v-0.352zM11.129 16.076h0.315v0.352h-0.315v-0.352zM11.517 16.076h0.278v0.352h-0.278v-0.352zM11.887 17.681l0.639-0.003 0.001 1.056-0.645-0.004 0.006-1.049zM11.883 17.537l-0.001-0.961 0.645 0.001-0.005 0.961-0.639-0zM11.128 16.575l0.679 0 0.001 0.962-0.678-0.002-0.002-0.96zM10.994 15.952l0.005 3.031 1.642 0.011 0.004-3.042-1.65-0.001z"></path>
<path d="M13.061 17.678l0.679-0.003 0.002 1.052-0.687-0 0.007-1.049zM13.811 16.074h0.305v0.352h-0.305v-0.352zM14.187 16.074h0.269v0.352h-0.269v-0.352zM13.059 16.074h0.315v0.352h-0.315v-0.352zM13.446 16.074h0.278v0.352h-0.278v-0.352zM13.817 17.679l0.639-0.003 0.001 1.056-0.645-0.004 0.005-1.049zM13.812 17.534l-0.001-0.961 0.645 0.001-0.005 0.961-0.639-0zM13.058 16.572l0.679 0 0.001 0.962-0.678-0.002-0.002-0.96zM12.924 15.95l0.005 3.031 1.642 0.011 0.004-3.042-1.65-0.001z"></path>
<path d="M14.992 17.678l0.679-0.003 0.002 1.052-0.687-0 0.007-1.049zM15.743 16.074h0.305v0.352h-0.305v-0.352zM16.119 16.074h0.269v0.352h-0.269v-0.352zM14.991 16.074h0.315v0.352h-0.315v-0.352zM15.379 16.074h0.278v0.352h-0.278v-0.352zM15.749 17.679l0.639-0.003 0.001 1.056-0.645-0.004 0.006-1.049zM15.745 17.534l-0.001-0.961 0.645 0.001-0.005 0.961-0.639-0zM14.99 16.572l0.679 0 0.001 0.962-0.678-0.002-0.002-0.96zM14.856 15.95l0.005 3.031 1.642 0.011 0.004-3.042-1.65-0.001z"></path>
<path d="M16.957 17.672l0.679-0.003 0.002 1.052-0.687-0 0.006-1.049zM17.707 16.068h0.305v0.352h-0.305v-0.352zM18.083 16.068h0.269v0.352h-0.269v-0.352zM16.954 16.068h0.315v0.352h-0.315v-0.352zM17.343 16.068h0.278v0.352h-0.278v-0.352zM17.713 17.673l0.639-0.003 0.001 1.056-0.645-0.004 0.006-1.049zM17.708 17.528l-0.001-0.961 0.645 0.001-0.005 0.961-0.639-0zM16.954 16.566l0.679 0 0.001 0.962-0.678-0.002-0.002-0.96zM16.819 15.944l0.005 3.031 1.642 0.011 0.004-3.042-1.65-0.001z"></path>
<path d="M18.919 17.681l0.679-0.003 0.002 1.052-0.687-0 0.006-1.049zM19.668 16.076h0.305v0.352h-0.305v-0.352zM20.045 16.076h0.269v0.352h-0.269v-0.352zM18.917 16.076h0.315v0.352h-0.315v-0.352zM19.305 16.076h0.278v0.352h-0.278v-0.352zM19.675 17.681l0.639-0.003 0.001 1.056-0.645-0.004 0.006-1.049zM19.671 17.537l-0.001-0.961 0.645 0.001-0.005 0.961-0.639-0zM18.916 16.575l0.679 0 0.001 0.962-0.678-0.002-0.002-0.96zM18.782 15.952l0.005 3.031 1.642 0.011 0.004-3.042-1.65-0.001z"></path>
<path d="M20.848 17.678l0.679-0.003 0.002 1.052-0.687-0 0.006-1.049zM21.599 16.074h0.305v0.352h-0.305v-0.352zM21.975 16.074h0.269v0.352h-0.269v-0.352zM20.847 16.074h0.315v0.352h-0.315v-0.352zM21.234 16.074h0.278v0.352h-0.278v-0.352zM21.605 17.679l0.639-0.003 0.001 1.056-0.645-0.004 0.006-1.049zM21.6 17.534l-0.001-0.961 0.645 0.001-0.005 0.961-0.639-0zM20.846 16.572l0.679 0 0.001 0.962-0.678-0.002-0.002-0.96zM20.712 15.95l0.005 3.031 1.642 0.011 0.004-3.042-1.65-0.001z"></path>
<path d="M22.781 17.678l0.679-0.003 0.002 1.052-0.687-0 0.006-1.049zM23.53 16.074h0.305v0.352h-0.305v-0.352zM23.907 16.074h0.269v0.352h-0.269v-0.352zM22.779 16.074h0.315v0.352h-0.315v-0.352zM23.166 16.074h0.278v0.352h-0.278v-0.352zM23.537 17.679l0.639-0.003 0.001 1.056-0.645-0.004 0.006-1.049zM23.532 17.534l-0.001-0.961 0.645 0.001-0.005 0.961-0.639-0zM22.778 16.572l0.679 0 0.001 0.962-0.678-0.002-0.002-0.96zM22.644 15.95l0.005 3.031 1.642 0.011 0.004-3.042-1.65-0.001z"></path>
<path d="M14.396 11.069l-0.303 1.387c-0.010 0.045 0.008 0.084 0.066 0.088 0.628-0.002 0.962-0.003 1.59-0.004 0.072-0.004 0.088-0.056 0.087-0.111l-0.378-1.359c-0.143-0.58-0.949-0.548-1.062 0zM14.308 12.226l1.311-0.011 0.051 0.148-1.399 0.011 0.036-0.147zM14.527 11.188l0.819-0.005 0.033 0.885-0.849 0.012-0.004-0.893zM14.407 11.069v0zM15.335 11.062l-0.81 0.007c0.020-0.303 0.758-0.294 0.81-0.007z"></path>
<path d="M14.606 11.323c0.001-0.018 0.013-0.041 0.037-0.041l0.622-0.002c0.023 0.004 0.037 0.021 0.036 0.041l-0.001 0.616c0 0.043-0.009 0.061-0.058 0.064l-0.572-0.001c-0.039-0.003-0.063-0.025-0.064-0.064l-0.001-0.614zM15.002 11.339l0.001 0.252 0.241-0-0-0.251-0.242-0zM15.003 11.664l0.001 0.267 0.241 0.001-0-0.269-0.242 0zM14.928 11.932l-0-0.269-0.261-0.001-0.001 0.269h0.262zM14.927 11.59l0.001-0.253-0.259 0.001 0.001 0.253 0.258-0z"></path>
<path d="M19.066 11.069l-0.303 1.387c-0.010 0.045 0.008 0.084 0.066 0.088 0.628-0.002 0.962-0.003 1.59-0.004 0.072-0.004 0.088-0.056 0.087-0.111l-0.378-1.359c-0.143-0.58-0.949-0.548-1.062 0zM18.978 12.226l1.311-0.011 0.051 0.148-1.399 0.011 0.036-0.147zM19.198 11.188l0.819-0.005 0.033 0.885-0.849 0.012-0.004-0.893zM19.077 11.069v0zM20.005 11.062l-0.81 0.007c0.020-0.303 0.758-0.294 0.81-0.007z"></path>
<path d="M19.275 11.323c0.001-0.018 0.013-0.041 0.037-0.041l0.622-0.002c0.023 0.004 0.037 0.021 0.036 0.041l-0.001 0.616c0 0.043-0.009 0.061-0.058 0.064l-0.572-0.001c-0.039-0.003-0.063-0.025-0.064-0.064l-0.001-0.614zM19.672 11.339l0.001 0.252 0.241-0-0-0.251-0.242-0zM19.673 11.664l0.001 0.267 0.241 0.001-0-0.269-0.242 0zM19.598 11.932l-0-0.269-0.261-0.001-0.001 0.269h0.262zM19.597 11.59l0.001-0.253-0.259 0.001 0.001 0.253 0.258-0z"></path>
<path d="M2.575 27.997v0.075h-0.081c0.007 0.089 0.023 0.222 0.048 0.401s0.052 0.332 0.079 0.46c0.033 0.155 0.059 0.233 0.079 0.233 0.005 0 0.012-0.004 0.022-0.012s0.025-0.012 0.045-0.012c0.013 0 0.024 0.006 0.031 0.019s0.011 0.026 0.011 0.042c0 0.008-0.001 0.015-0.002 0.020s-0.006 0.021-0.015 0.047c-0.008 0.026-0.014 0.048-0.019 0.065s-0.009 0.042-0.014 0.073c-0.010 0.065-0.015 0.098-0.015 0.099-0.009 0.032-0.022 0.048-0.040 0.048-0.015 0-0.026-0.008-0.032-0.023s-0.010-0.033-0.012-0.055c-0.012-0.104-0.045-0.173-0.098-0.208-0.031-0.020-0.080-0.030-0.147-0.030h-0.147c-0.102 0-0.17 0.012-0.203 0.037s-0.058 0.078-0.074 0.16c-0.011 0.047-0.016 0.073-0.017 0.076-0.010 0.028-0.023 0.043-0.040 0.043-0.015 0-0.027-0.011-0.033-0.032-0.003-0.009-0.006-0.028-0.009-0.057s-0.008-0.064-0.017-0.106c-0.008-0.042-0.017-0.076-0.027-0.102-0.004-0.012-0.007-0.023-0.010-0.033s-0.004-0.021-0.004-0.032c0-0.018 0.006-0.031 0.018-0.039s0.025-0.012 0.038-0.012c0.008 0 0.017 0.001 0.027 0.004s0.019 0.004 0.024 0.004c0.020 0 0.034-0.015 0.042-0.044 0.003-0.009 0.007-0.038 0.012-0.087 0.009-0.084 0.025-0.17 0.051-0.257 0.031-0.109 0.076-0.226 0.137-0.351 0.027-0.054 0.045-0.095 0.054-0.121 0.017-0.048 0.026-0.094 0.026-0.137 0-0.021-0.004-0.037-0.012-0.049-0.013-0.020-0.038-0.030-0.074-0.030h-0.078v-0.075h0.476zM2.197 29.166h0.251l-0.029-0.133c-0.022-0.102-0.041-0.192-0.056-0.27s-0.032-0.179-0.049-0.302l-0.014-0.098c-0.064 0.099-0.118 0.224-0.163 0.373-0.040 0.134-0.061 0.238-0.061 0.314 0 0.047 0.009 0.078 0.026 0.094s0.049 0.022 0.095 0.022zM3.438 29.24h-0.075l-0.007 0.136v0.080c0 0.037 0.001 0.067 0.004 0.093s0.007 0.055 0.013 0.089c0.002 0.012 0.003 0.020 0.003 0.024 0 0.004 0 0.010 0 0.020l-0.137 0.012c0-0.048 0.002-0.104 0.006-0.167s0.009-0.12 0.014-0.172l0.012-0.115h-0.131l-0.23-1.168h-0.059v-0.075h0.388v0.075h-0.1l0.18 0.946c0.029-0.167 0.058-0.323 0.087-0.471s0.054-0.258 0.073-0.332c0.019-0.074 0.039-0.127 0.059-0.16 0.033-0.054 0.076-0.081 0.128-0.081 0.019 0 0.043 0.005 0.071 0.014s0.046 0.021 0.054 0.035c-0.002 0.012-0.003 0.020-0.004 0.024s-0.004 0.014-0.009 0.029c-0.007 0.017-0.011 0.037-0.014 0.060s-0.004 0.067-0.004 0.13h-0.022l-0.026-0.016c-0.015-0.011-0.025-0.017-0.027-0.018-0.011-0.006-0.021-0.009-0.032-0.009-0.045 0-0.086 0.045-0.123 0.135-0.026 0.064-0.051 0.16-0.075 0.287-0.001 0.002-0.015 0.088-0.043 0.255-0.008 0.043-0.015 0.085-0.022 0.126s-0.016 0.088-0.025 0.138h0.072v0.075zM4.175 28.072l0.152 0.302 0.059-0.163c0.033-0.089 0.062-0.147 0.088-0.176 0.037-0.041 0.092-0.062 0.163-0.062 0.026 0 0.056 0.006 0.090 0.017s0.051 0.024 0.051 0.038c0 0.009-0.004 0.022-0.012 0.037l-0.013 0.033-0.012 0.028c-0.006 0.017-0.009 0.027-0.010 0.032-0.005 0.017-0.007 0.032-0.007 0.046v0.014c0.001 0.015-0 0.030-0.004 0.044h-0.042c-0.029-0.026-0.051-0.043-0.065-0.049s-0.032-0.011-0.052-0.011c-0.029 0-0.052 0.008-0.070 0.023s-0.042 0.059-0.071 0.131l-0.019 0.046-0.026 0.065 0.329 0.696h0.123v0.075h-0.515v-0.075h0.137l-0.224-0.468-0.084 0.197c-0.013 0.032-0.028 0.073-0.043 0.123s-0.022 0.086-0.022 0.106c0 0.017 0.006 0.028 0.018 0.033s0.028 0.009 0.048 0.009h0.023c0.006 0 0.010 0 0.013 0v0.075h-0.351v-0.076c0.010 0.001 0.017 0.002 0.022 0.002 0.052 0 0.095-0.027 0.13-0.080 0.021-0.033 0.052-0.103 0.092-0.21l0.020-0.053 0.087-0.22-0.253-0.531h-0.095v-0.075h0.45v0.075h-0.107zM5.317 27.949c0.008 0 0.017 0.006 0.027 0.018 0.003 0.003 0.014 0.017 0.033 0.043 0.023 0.028 0.040 0.049 0.051 0.061s0.040 0.044 0.087 0.095c0.064 0.067 0.109 0.128 0.136 0.183 0.039 0.076 0.057 0.163 0.057 0.261 0 0.084-0.013 0.159-0.039 0.226-0.021 0.054-0.057 0.115-0.108 0.18-0.007 0.008-0.058 0.070-0.155 0.184-0.047 0.058-0.079 0.087-0.097 0.087-0.011 0-0.024-0.008-0.042-0.023s-0.052-0.051-0.106-0.107c-0.064-0.066-0.103-0.109-0.117-0.128-0.042-0.052-0.075-0.107-0.097-0.163-0.028-0.070-0.042-0.146-0.042-0.229 0-0.127 0.034-0.247 0.103-0.362 0.042-0.072 0.103-0.146 0.18-0.22 0.014-0.014 0.028-0.028 0.042-0.043 0.007-0.007 0.013-0.015 0.020-0.023 0.011-0.014 0.022-0.024 0.033-0.031s0.022-0.010 0.032-0.010zM5.221 28.184c-0.051 0.008-0.093 0.039-0.126 0.091s-0.049 0.11-0.049 0.17c0 0.056 0.019 0.117 0.056 0.184 0.033 0.062 0.088 0.137 0.162 0.225 0.047 0.057 0.078 0.097 0.092 0.121s0.022 0.051 0.025 0.083c0.043-0.020 0.083-0.053 0.118-0.099s0.056-0.094 0.063-0.146c0.002-0.012 0.003-0.022 0.003-0.030 0-0.006-0.001-0.016-0.003-0.030-0.007-0.049-0.038-0.115-0.094-0.197-0.008-0.012-0.040-0.057-0.098-0.137-0.029-0.039-0.060-0.080-0.089-0.122s-0.049-0.080-0.059-0.114zM5.927 29.166v-0.563c0-0.214 0.024-0.368 0.074-0.461 0.059-0.112 0.164-0.169 0.315-0.169 0.092 0 0.167 0.029 0.222 0.087 0.052 0.054 0.078 0.121 0.078 0.199 0 0.089-0.024 0.155-0.074 0.199-0.040 0.035-0.090 0.053-0.152 0.053-0.023 0-0.045-0.005-0.065-0.014s-0.043-0.024-0.065-0.043l-0.064 0.098c0.050 0.049 0.099 0.085 0.147 0.107s0.1 0.032 0.158 0.032h0.013c0.043 0 0.072 0.009 0.087 0.027 0.011 0.013 0.016 0.035 0.016 0.067v0.36c0 0.037-0.004 0.060-0.012 0.069-0.015 0.018-0.048 0.027-0.1 0.027h-0.697v-0.075h0.12zM6.151 29.166h0.178c0.024 0 0.041-0.008 0.049-0.023s0.014-0.047 0.014-0.096v-0.201c0-0.027-0.003-0.047-0.009-0.057s-0.024-0.027-0.054-0.047c-0.046-0.031-0.080-0.055-0.101-0.073-0.031-0.026-0.057-0.054-0.078-0.083v0.58zM6.151 28.523l0.084-0.14c0.012 0.008 0.025 0.015 0.038 0.021s0.022 0.009 0.028 0.009c0.020 0 0.039-0.011 0.055-0.033 0.024-0.033 0.036-0.083 0.036-0.149 0-0.063-0.011-0.109-0.032-0.138s-0.049-0.044-0.081-0.044c-0.053 0-0.088 0.041-0.108 0.122-0.013 0.056-0.020 0.138-0.020 0.249 0 0.019 0 0.037 0 0.054s0 0.034 0 0.051zM7.105 28.378v0.787h0.1v0.075h-0.443v-0.075h0.12v-1.093h-0.12v-0.075h0.443v0.075h-0.1v0.188l0.319 0.481v-0.669h-0.1v-0.075h0.443v0.075h-0.12v1.093h0.12v0.075h-0.443v-0.075h0.1v-0.306l-0.319-0.481zM8.293 27.949c0.008 0 0.017 0.006 0.027 0.018 0.003 0.003 0.014 0.017 0.033 0.043 0.023 0.028 0.040 0.049 0.051 0.061s0.040 0.044 0.087 0.095c0.064 0.067 0.109 0.128 0.136 0.183 0.039 0.076 0.057 0.163 0.057 0.261 0 0.084-0.013 0.159-0.039 0.226-0.021 0.054-0.057 0.115-0.108 0.18-0.007 0.008-0.058 0.070-0.155 0.184-0.047 0.058-0.079 0.087-0.097 0.087-0.011 0-0.024-0.008-0.042-0.023s-0.052-0.051-0.106-0.107c-0.064-0.066-0.103-0.109-0.117-0.128-0.042-0.052-0.075-0.107-0.097-0.163-0.028-0.070-0.042-0.146-0.042-0.229 0-0.127 0.034-0.247 0.103-0.362 0.042-0.072 0.103-0.146 0.18-0.22 0.015-0.014 0.028-0.028 0.042-0.043 0.007-0.007 0.013-0.015 0.020-0.023 0.011-0.014 0.022-0.024 0.033-0.031s0.022-0.010 0.032-0.010zM8.198 28.184c-0.051 0.008-0.093 0.039-0.126 0.091s-0.049 0.11-0.049 0.17c0 0.056 0.019 0.117 0.056 0.184 0.033 0.062 0.088 0.137 0.162 0.225 0.047 0.057 0.078 0.097 0.092 0.121s0.022 0.051 0.025 0.083c0.043-0.020 0.083-0.053 0.118-0.099s0.056-0.094 0.063-0.146c0.002-0.012 0.003-0.022 0.003-0.030 0-0.006-0.001-0.016-0.003-0.030-0.007-0.049-0.038-0.115-0.094-0.197-0.008-0.012-0.040-0.057-0.098-0.137-0.029-0.039-0.060-0.080-0.089-0.122s-0.049-0.080-0.059-0.114zM8.794 28.805h0.419v0.103h-0.419v-0.103zM9.663 28.072v1.093h0.1v0.075h-0.443v-0.075h0.12v-1.093h-0.12v-0.075h1.006v0.075h-0.12v1.093h0.12v0.075h-0.443v-0.075h0.1v-1.093h-0.319zM10.782 28.766v0.4h0.12v0.075h-0.463v-0.075h0.12v-0.649c0-0.047 0-0.094 0.001-0.138s0.002-0.089 0.003-0.131c0.028-0.084 0.074-0.151 0.137-0.2s0.134-0.074 0.211-0.074c0.115 0 0.205 0.034 0.271 0.103 0.063 0.065 0.094 0.149 0.094 0.252 0 0.098-0.023 0.18-0.070 0.246s-0.105 0.099-0.174 0.099c-0.025 0-0.047-0.004-0.065-0.012-0.005-0.002-0.023-0.013-0.054-0.033l-0.032-0.020-0.1 0.16zM10.782 28.658l0.092-0.142c0.020 0.020 0.038 0.030 0.054 0.030 0.023 0 0.042-0.012 0.057-0.035 0.024-0.037 0.036-0.1 0.036-0.186s-0.007-0.151-0.022-0.194c-0.019-0.056-0.052-0.083-0.1-0.083-0.064 0-0.101 0.060-0.113 0.18-0.004 0.041-0.006 0.105-0.006 0.191v0.239zM11.809 27.949c0.008 0 0.017 0.006 0.027 0.018 0.003 0.003 0.014 0.017 0.033 0.043 0.023 0.028 0.040 0.049 0.051 0.061s0.040 0.044 0.087 0.095c0.064 0.067 0.109 0.128 0.136 0.183 0.039 0.076 0.057 0.163 0.057 0.261 0 0.084-0.013 0.159-0.039 0.226-0.021 0.054-0.057 0.115-0.108 0.18-0.007 0.008-0.058 0.070-0.155 0.184-0.047 0.058-0.079 0.087-0.097 0.087-0.011 0-0.024-0.008-0.042-0.023s-0.052-0.051-0.106-0.107c-0.064-0.066-0.103-0.109-0.117-0.128-0.042-0.052-0.075-0.107-0.097-0.163-0.028-0.070-0.042-0.146-0.042-0.229 0-0.127 0.034-0.247 0.103-0.362 0.042-0.072 0.103-0.146 0.18-0.22 0.015-0.014 0.028-0.028 0.042-0.043 0.007-0.007 0.013-0.015 0.020-0.023 0.011-0.014 0.022-0.024 0.033-0.031s0.022-0.010 0.032-0.010zM11.713 28.184c-0.051 0.008-0.093 0.039-0.126 0.091s-0.049 0.11-0.049 0.17c0 0.056 0.019 0.117 0.056 0.184 0.033 0.062 0.088 0.137 0.162 0.225 0.047 0.057 0.078 0.097 0.092 0.121s0.022 0.051 0.025 0.083c0.043-0.020 0.083-0.053 0.118-0.099s0.056-0.094 0.063-0.146c0.002-0.012 0.003-0.022 0.003-0.030 0-0.006-0.001-0.016-0.003-0.030-0.007-0.049-0.038-0.115-0.094-0.197-0.008-0.012-0.040-0.057-0.098-0.137-0.029-0.039-0.060-0.080-0.089-0.122s-0.049-0.080-0.059-0.114zM13.219 28.437h-0.378v-0.075h0.064c0-0.117-0.017-0.202-0.051-0.255-0.026-0.040-0.062-0.060-0.106-0.060-0.048 0-0.087 0.025-0.117 0.076-0.037 0.064-0.056 0.166-0.056 0.305 0 0.074 0.004 0.144 0.013 0.213 0.006 0.045 0.019 0.119 0.040 0.224s0.031 0.19 0.031 0.257c0 0.014-0.002 0.029-0.005 0.044s-0.005 0.025-0.007 0.030l-0.006 0.025c0.009 0.007 0.020 0.011 0.035 0.011 0.054 0 0.106-0.046 0.155-0.137s0.074-0.19 0.074-0.298c0-0.020 0-0.035 0-0.044h-0.064v-0.075h0.378v0.075h-0.059c0 0.144-0.054 0.27-0.163 0.376-0.101 0.099-0.21 0.149-0.326 0.149-0.029 0-0.049-0.001-0.061-0.004s-0.027-0.009-0.044-0.017v-0.025c0-0.048-0.004-0.086-0.012-0.114-0.013-0.047-0.046-0.111-0.097-0.192-0.059-0.092-0.098-0.172-0.117-0.238-0.013-0.046-0.020-0.102-0.020-0.167 0-0.168 0.044-0.303 0.131-0.405 0.083-0.097 0.186-0.146 0.31-0.146 0.136 0 0.239 0.049 0.309 0.147 0.046 0.064 0.076 0.145 0.089 0.243h0.059v0.075zM13.42 29.166v-0.563c0-0.214 0.024-0.368 0.074-0.461 0.059-0.112 0.164-0.169 0.315-0.169 0.092 0 0.166 0.029 0.222 0.087 0.052 0.054 0.078 0.121 0.078 0.199 0 0.089-0.024 0.155-0.074 0.199-0.040 0.035-0.090 0.053-0.152 0.053-0.023 0-0.045-0.005-0.065-0.014s-0.043-0.024-0.065-0.043l-0.064 0.098c0.050 0.049 0.099 0.085 0.147 0.107s0.1 0.032 0.158 0.032h0.013c0.043 0 0.072 0.009 0.087 0.027 0.011 0.013 0.016 0.035 0.016 0.067v0.36c0 0.037-0.004 0.060-0.012 0.069-0.015 0.018-0.048 0.027-0.1 0.027h-0.697v-0.075h0.12zM13.644 29.166h0.178c0.024 0 0.041-0.008 0.049-0.023s0.014-0.047 0.014-0.096v-0.201c0-0.027-0.003-0.047-0.009-0.057s-0.024-0.027-0.054-0.047c-0.046-0.031-0.080-0.055-0.101-0.073-0.031-0.026-0.057-0.054-0.078-0.083v0.58zM13.644 28.523l0.084-0.14c0.012 0.008 0.025 0.015 0.038 0.021s0.022 0.009 0.028 0.009c0.020 0 0.039-0.011 0.055-0.033 0.024-0.033 0.036-0.083 0.036-0.149 0-0.063-0.011-0.109-0.032-0.138s-0.049-0.044-0.081-0.044c-0.053 0-0.088 0.041-0.108 0.122-0.013 0.056-0.020 0.138-0.020 0.249 0 0.019 0 0.037 0 0.054s0 0.034 0 0.051zM14.721 28.619h0.054c-0.009-0.034-0.022-0.061-0.040-0.079s-0.035-0.028-0.051-0.028c-0.031 0-0.061 0.007-0.090 0.020s-0.054 0.034-0.073 0.061c0.006 0.046 0.011 0.082 0.015 0.107s0.011 0.057 0.021 0.095c0.016 0.067 0.027 0.112 0.030 0.135 0.008 0.045 0.012 0.096 0.012 0.152 0 0.024-0.001 0.040-0.002 0.049s-0.005 0.024-0.012 0.044c0.013 0.008 0.031 0.012 0.054 0.012 0.083 0 0.148-0.031 0.196-0.092 0.036-0.046 0.060-0.104 0.072-0.174h-0.072v-0.075h0.378v0.073l-0.053 0.002c-0.045 0.099-0.103 0.179-0.175 0.241-0.079 0.067-0.16 0.1-0.244 0.1-0.040 0-0.082-0.003-0.126-0.008s-0.080-0.014-0.11-0.026c0-0.008 0-0.017 0-0.026s0-0.016 0-0.020c0-0.041-0.009-0.083-0.026-0.124-0.013-0.032-0.034-0.069-0.062-0.11-0.065-0.099-0.108-0.175-0.127-0.226s-0.029-0.111-0.029-0.18c0-0.201 0.056-0.352 0.167-0.453 0.088-0.079 0.197-0.119 0.326-0.119 0.081 0 0.152 0.017 0.215 0.049 0.089 0.047 0.151 0.124 0.184 0.229h0.069v0.075h-0.358v-0.075h0.045c-0.008-0.053-0.024-0.097-0.049-0.131-0.035-0.048-0.082-0.073-0.142-0.073-0.070 0-0.124 0.043-0.16 0.128-0.031 0.072-0.046 0.16-0.046 0.263 0 0.031 0.001 0.060 0.004 0.087 0.037-0.039 0.075-0.067 0.116-0.086s0.083-0.027 0.125-0.027c0.057 0 0.11 0.018 0.16 0.055s0.084 0.087 0.103 0.151h0.059v0.075h-0.358v-0.075zM15.689 29.166v-1.091h-0.062c-0.057 0-0.094 0.008-0.11 0.025-0.028 0.028-0.055 0.106-0.081 0.233-0.004 0.018-0.007 0.035-0.010 0.051-0.007 0.024-0.019 0.037-0.037 0.037-0.016 0-0.027-0.008-0.033-0.025s-0.009-0.035-0.009-0.057c0-0.024-0.002-0.049-0.007-0.075s-0.010-0.050-0.017-0.071c-0.006-0.021-0.017-0.051-0.031-0.091-0.009-0.026-0.014-0.046-0.014-0.060 0-0.017 0.005-0.032 0.016-0.046s0.027-0.021 0.048-0.021c0.025 0.007 0.053 0.013 0.084 0.019s0.068 0.008 0.109 0.008h0.533c0.046 0 0.083-0.003 0.11-0.008s0.055-0.012 0.083-0.019c0.020 0 0.036 0.007 0.047 0.020s0.017 0.029 0.017 0.047c0 0.011-0.003 0.025-0.009 0.043-0.012 0.034-0.023 0.068-0.035 0.101-0.008 0.025-0.014 0.052-0.020 0.081s-0.008 0.054-0.008 0.074c0 0.026-0.001 0.043-0.003 0.049-0.006 0.021-0.018 0.032-0.037 0.032s-0.032-0.018-0.040-0.055c-0.004-0.015-0.011-0.046-0.020-0.092-0.019-0.085-0.042-0.142-0.068-0.17-0.018-0.020-0.046-0.029-0.082-0.029h-0.089v1.091h0.12v0.075h-0.463v-0.075h0.12zM17.079 28.378l-0.319 0.481v0.306h0.1v0.075h-0.443v-0.075h0.12v-1.093h-0.12v-0.075h0.443v0.075h-0.1v0.669l0.319-0.481v-0.188h-0.1v-0.075h0.443v0.075h-0.12v1.093h0.12v0.075h-0.443v-0.075h0.1v-0.787zM17.927 29.166v-1.091h-0.062c-0.057 0-0.094 0.008-0.11 0.025-0.028 0.028-0.055 0.106-0.081 0.233-0.004 0.018-0.007 0.035-0.010 0.051-0.007 0.024-0.019 0.037-0.037 0.037-0.016 0-0.027-0.008-0.033-0.025s-0.009-0.035-0.009-0.057c0-0.024-0.003-0.049-0.007-0.075s-0.010-0.050-0.017-0.071c-0.006-0.021-0.017-0.051-0.031-0.091-0.010-0.026-0.015-0.046-0.015-0.060 0-0.017 0.005-0.032 0.016-0.046s0.027-0.021 0.048-0.021c0.025 0.007 0.053 0.013 0.084 0.019s0.068 0.008 0.109 0.008h0.533c0.046 0 0.083-0.003 0.11-0.008s0.055-0.012 0.083-0.019c0.020 0 0.036 0.007 0.047 0.020s0.017 0.029 0.017 0.047c0 0.011-0.003 0.025-0.009 0.043-0.012 0.034-0.023 0.068-0.035 0.101-0.008 0.025-0.014 0.052-0.020 0.081s-0.008 0.054-0.008 0.074c0 0.026-0.001 0.043-0.003 0.049-0.006 0.021-0.018 0.032-0.037 0.032s-0.032-0.018-0.040-0.055c-0.004-0.015-0.011-0.046-0.020-0.092-0.019-0.085-0.042-0.142-0.068-0.17-0.018-0.020-0.046-0.029-0.082-0.029h-0.089v1.091h0.12v0.075h-0.463v-0.075h0.12zM19.12 28.619h0.054c-0.009-0.034-0.022-0.061-0.040-0.079s-0.035-0.028-0.051-0.028c-0.031 0-0.061 0.007-0.090 0.020s-0.054 0.034-0.073 0.061c0.006 0.046 0.011 0.082 0.015 0.107s0.011 0.057 0.021 0.095c0.016 0.067 0.027 0.112 0.030 0.135 0.008 0.045 0.012 0.096 0.012 0.152 0 0.024-0.001 0.040-0.002 0.049s-0.005 0.024-0.012 0.044c0.013 0.008 0.031 0.012 0.054 0.012 0.083 0 0.148-0.031 0.196-0.092 0.036-0.046 0.060-0.104 0.072-0.174h-0.072v-0.075h0.378v0.073l-0.053 0.002c-0.045 0.099-0.103 0.179-0.175 0.241-0.079 0.067-0.16 0.1-0.244 0.1-0.040 0-0.082-0.003-0.126-0.008s-0.080-0.014-0.11-0.026c0-0.008 0-0.017 0-0.026s0-0.016 0-0.020c0-0.041-0.009-0.083-0.026-0.124-0.013-0.032-0.034-0.069-0.062-0.11-0.065-0.099-0.108-0.175-0.127-0.226s-0.029-0.111-0.029-0.18c0-0.201 0.056-0.352 0.167-0.453 0.088-0.079 0.197-0.119 0.326-0.119 0.081 0 0.152 0.017 0.215 0.049 0.089 0.047 0.151 0.124 0.184 0.229h0.069v0.075h-0.358v-0.075h0.045c-0.008-0.053-0.024-0.097-0.049-0.131-0.035-0.048-0.082-0.073-0.142-0.073-0.070 0-0.124 0.043-0.16 0.128-0.031 0.072-0.046 0.16-0.046 0.263 0 0.031 0.001 0.060 0.004 0.087 0.037-0.039 0.075-0.067 0.116-0.086s0.083-0.027 0.125-0.027c0.057 0 0.11 0.018 0.16 0.055s0.084 0.087 0.103 0.151h0.059v0.075h-0.358v-0.075zM20.156 29.166h0.094c-0.033-0.127-0.065-0.271-0.095-0.433-0.015-0.086-0.033-0.193-0.052-0.319l-0.024-0.147c-0.018 0.026-0.032 0.048-0.041 0.067s-0.023 0.049-0.041 0.092c-0.029 0.067-0.052 0.13-0.071 0.19-0.027 0.090-0.040 0.169-0.040 0.238 0 0.078 0.004 0.13 0.012 0.154 0.005 0.017 0.013 0.024 0.026 0.024 0.015 0 0.024 0.006 0.029 0.018 0.009 0.024 0.013 0.079 0.013 0.165 0 0.018-0.005 0.029-0.017 0.035s-0.023 0.009-0.035 0.009c-0.008-0-0.017-0.001-0.027-0.003s-0.021-0.004-0.032-0.005c-0.011-0.002-0.021-0.003-0.029-0.003s-0.018 0-0.026 0.001-0.014 0.001-0.020 0.003-0.014 0.002-0.027 0.002c-0.018 0-0.031-0.005-0.039-0.016s-0.012-0.027-0.015-0.048v-0.062c0-0.066 0.009-0.131 0.026-0.195s0.054-0.163 0.11-0.296l0.095-0.227c0.033-0.074 0.058-0.135 0.076-0.186s0.027-0.086 0.027-0.107c0-0.019-0.004-0.031-0.012-0.036s-0.020-0.008-0.037-0.008h-0.1v-0.075h0.476v0.075h-0.088c0.015 0.144 0.040 0.31 0.075 0.497 0.031 0.17 0.064 0.328 0.101 0.474l0.027 0.122h0.106v0.075h-0.424v-0.075zM21.12 27.997v0.075h-0.12v0.438c0.039 0.044 0.093 0.080 0.163 0.11 0.060 0.025 0.11 0.037 0.15 0.037l0.059-0.004c0.006-0.001 0.014-0.002 0.024-0.002 0.021 0 0.037 0.008 0.048 0.023s0.017 0.047 0.017 0.094v0.346c0 0.054-0.007 0.090-0.022 0.107-0.011 0.012-0.033 0.018-0.067 0.018h-0.718v-0.075h0.12v-1.093h-0.12v-0.075h0.463zM21 29.166h0.13c0.032 0 0.055-0.004 0.069-0.012 0.026-0.014 0.039-0.043 0.039-0.087v-0.254c0-0.031-0.003-0.051-0.010-0.061s-0.027-0.021-0.060-0.035c-0.033-0.013-0.062-0.027-0.085-0.041-0.029-0.018-0.056-0.040-0.083-0.067v0.557zM22.479 28.437h-0.378v-0.075h0.064c0-0.117-0.017-0.202-0.051-0.255-0.026-0.040-0.061-0.060-0.106-0.060-0.048 0-0.087 0.025-0.117 0.076-0.037 0.064-0.056 0.166-0.056 0.305 0 0.074 0.004 0.144 0.013 0.213 0.006 0.045 0.019 0.119 0.040 0.224s0.031 0.19 0.031 0.257c0 0.014-0.002 0.029-0.005 0.044s-0.005 0.025-0.007 0.030l-0.006 0.025c0.009 0.007 0.020 0.011 0.035 0.011 0.054 0 0.106-0.046 0.155-0.137s0.074-0.19 0.074-0.298c0-0.020 0-0.035 0-0.044h-0.064v-0.075h0.378v0.075h-0.059c0 0.144-0.054 0.27-0.163 0.376-0.101 0.099-0.21 0.149-0.326 0.149-0.029 0-0.049-0.001-0.061-0.004s-0.027-0.009-0.044-0.017v-0.025c0-0.048-0.004-0.086-0.012-0.114-0.013-0.047-0.046-0.111-0.097-0.192-0.059-0.092-0.098-0.172-0.117-0.238-0.013-0.046-0.020-0.102-0.020-0.167 0-0.168 0.044-0.303 0.131-0.405 0.083-0.097 0.186-0.146 0.31-0.146 0.136 0 0.239 0.049 0.309 0.147 0.046 0.064 0.076 0.145 0.089 0.243h0.059v0.075z"></path>
<path d="M22.918 28.546h0.054l0.020-0.049 0.023-0.064 0.030-0.076c0.057-0.143 0.095-0.229 0.113-0.257 0.050-0.084 0.108-0.126 0.175-0.126 0.022 0 0.044 0.003 0.066 0.009s0.042 0.014 0.061 0.023c-0.018 0.057-0.028 0.089-0.030 0.098s-0.004 0.028-0.006 0.060c-0.003 0.026-0.004 0.045-0.004 0.056s0 0.021 0 0.029h-0.029l-0.046-0.023c-0.013-0.008-0.026-0.014-0.037-0.017s-0.025-0.004-0.040-0.004c-0.057 0-0.136 0.121-0.235 0.362 0.123 0.034 0.215 0.086 0.274 0.156 0.086 0.099 0.128 0.247 0.128 0.444h0.087v0.075h-0.393v-0.075h0.056c0-0.174-0.015-0.298-0.043-0.371-0.039-0.098-0.113-0.16-0.222-0.186v0.557h0.089v0.075h-0.433v-0.075h0.12v-1.093h-0.12v-0.075h0.443v0.075h-0.1v0.474zM24.276 28.378l-0.319 0.481v0.306h0.1v0.075h-0.443v-0.075h0.12v-1.093h-0.12v-0.075h0.443v0.075h-0.1v0.669l0.319-0.481v-0.188h-0.1v-0.075h0.443v0.075h-0.12v1.093h0.12v0.075h-0.443v-0.075h0.1v-0.787zM25.395 28.378l-0.319 0.481v0.306h0.1v0.075h-0.443v-0.075h0.12v-1.093h-0.12v-0.075h0.427v0.075h-0.084v0.669l0.319-0.481v-0.188h-0.084v-0.075h0.427v0.075h-0.12v1.093h0.12v0.075h-0.443v-0.075h0.1v-0.787zM25.406 27.657l0.064 0.028c-0.023 0.074-0.056 0.135-0.099 0.186s-0.088 0.075-0.135 0.075c-0.053 0-0.099-0.029-0.137-0.089-0.033-0.053-0.056-0.119-0.066-0.199l0.056-0.020c0.012 0.037 0.027 0.069 0.046 0.094 0.026 0.034 0.056 0.051 0.091 0.051 0.046 0 0.086-0.014 0.12-0.043 0.025-0.021 0.045-0.049 0.061-0.086zM12.15 30.228v0.075h-0.12v1.093h0.049c0.025 0 0.054-0.003 0.086-0.008s0.049-0.008 0.053-0.008c0.020 0 0.036 0.009 0.048 0.028s0.018 0.041 0.018 0.068c0 0.019-0.002 0.038-0.007 0.057s-0.010 0.043-0.018 0.069c-0.008 0.027-0.017 0.062-0.027 0.106s-0.016 0.078-0.018 0.103c-0.002 0.025-0.005 0.042-0.009 0.051-0.008 0.020-0.020 0.030-0.036 0.030s-0.030-0.015-0.039-0.046c-0.012-0.057-0.023-0.111-0.035-0.163-0.015-0.075-0.032-0.125-0.051-0.151-0.029-0.041-0.076-0.062-0.142-0.062h-0.755v-0.075h0.12v-1.093h-0.12v-0.075h0.443v0.075h-0.1v1.093h0.313v-1.093h-0.1v-0.075h0.443zM12.807 30.85h0.054c-0.009-0.034-0.022-0.061-0.040-0.079s-0.035-0.028-0.051-0.028c-0.031 0-0.061 0.007-0.090 0.020s-0.054 0.034-0.073 0.061c0.006 0.046 0.011 0.082 0.015 0.107s0.011 0.057 0.021 0.095c0.016 0.067 0.027 0.112 0.030 0.135 0.008 0.045 0.012 0.096 0.012 0.152 0 0.024-0.001 0.040-0.002 0.049s-0.005 0.024-0.012 0.044c0.013 0.008 0.031 0.012 0.054 0.012 0.083 0 0.148-0.031 0.196-0.092 0.036-0.046 0.060-0.104 0.072-0.174h-0.072v-0.075h0.378v0.073l-0.053 0.002c-0.045 0.099-0.103 0.179-0.175 0.241-0.079 0.067-0.16 0.1-0.244 0.1-0.040 0-0.082-0.003-0.126-0.008s-0.080-0.014-0.11-0.026c0-0.008 0-0.017 0-0.026s0-0.016 0-0.020c0-0.041-0.009-0.083-0.026-0.124-0.013-0.032-0.034-0.069-0.062-0.11-0.065-0.099-0.108-0.175-0.127-0.226s-0.029-0.111-0.029-0.18c0-0.201 0.056-0.352 0.167-0.453 0.088-0.079 0.197-0.119 0.326-0.119 0.081 0 0.152 0.017 0.215 0.049 0.089 0.047 0.151 0.124 0.184 0.229h0.069v0.075h-0.358v-0.075h0.045c-0.008-0.053-0.024-0.097-0.049-0.131-0.035-0.048-0.082-0.073-0.142-0.073-0.070 0-0.124 0.043-0.16 0.128-0.031 0.072-0.046 0.16-0.046 0.263 0 0.031 0.001 0.060 0.004 0.087 0.037-0.039 0.075-0.067 0.116-0.086s0.083-0.027 0.125-0.027c0.057 0 0.11 0.018 0.16 0.055s0.084 0.087 0.103 0.151h0.059v0.075h-0.358v-0.075zM13.728 30.609v0.787h0.1v0.075h-0.443v-0.075h0.12v-1.093h-0.12v-0.075h0.443v0.075h-0.1v0.188l0.319 0.481v-0.669h-0.1v-0.075h0.443v0.075h-0.12v1.093h0.12v0.075h-0.443v-0.075h0.1v-0.306l-0.319-0.481zM14.895 31.396v-1.091h-0.062c-0.057 0-0.094 0.008-0.11 0.025-0.028 0.028-0.055 0.106-0.081 0.233-0.004 0.018-0.007 0.035-0.010 0.051-0.007 0.024-0.019 0.037-0.037 0.037-0.016 0-0.027-0.008-0.033-0.025s-0.009-0.035-0.009-0.057c0-0.024-0.002-0.049-0.007-0.075s-0.010-0.050-0.017-0.071c-0.006-0.021-0.017-0.051-0.031-0.091-0.010-0.026-0.014-0.046-0.014-0.060 0-0.017 0.005-0.032 0.016-0.046s0.027-0.021 0.048-0.021c0.025 0.007 0.053 0.013 0.084 0.019s0.068 0.008 0.109 0.008h0.533c0.046 0 0.083-0.003 0.111-0.008s0.055-0.012 0.083-0.019c0.020 0 0.036 0.007 0.047 0.020s0.017 0.029 0.017 0.047c0 0.011-0.003 0.025-0.009 0.043-0.012 0.034-0.023 0.068-0.035 0.101-0.008 0.025-0.014 0.052-0.020 0.081s-0.008 0.054-0.008 0.074c0 0.026-0.001 0.043-0.003 0.049-0.006 0.021-0.018 0.032-0.037 0.032s-0.032-0.018-0.040-0.055c-0.004-0.015-0.011-0.046-0.020-0.092-0.019-0.085-0.042-0.141-0.068-0.17-0.018-0.020-0.046-0.029-0.082-0.029h-0.089v1.091h0.12v0.075h-0.463v-0.075h0.12zM15.965 30.997v0.4h0.12v0.075h-0.463v-0.075h0.12v-0.649c0-0.047 0-0.094 0.001-0.138s0.002-0.089 0.003-0.131c0.028-0.084 0.074-0.151 0.137-0.2s0.134-0.074 0.211-0.074c0.115 0 0.205 0.034 0.271 0.103 0.063 0.065 0.094 0.149 0.094 0.252 0 0.098-0.023 0.18-0.070 0.246s-0.105 0.099-0.174 0.099c-0.025 0-0.047-0.004-0.065-0.012-0.005-0.002-0.023-0.013-0.054-0.033l-0.032-0.020-0.1 0.16zM15.965 30.889l0.092-0.142c0.020 0.020 0.038 0.030 0.054 0.030 0.023 0 0.042-0.012 0.057-0.035 0.024-0.037 0.036-0.1 0.036-0.186s-0.007-0.151-0.022-0.194c-0.019-0.056-0.052-0.083-0.1-0.083-0.064 0-0.101 0.060-0.113 0.18-0.004 0.041-0.006 0.105-0.006 0.191v0.239z"></path>
<path d="M0.272 8.792v19.511h1.127v0.136h-1.263v-19.646h0.136zM26.246 28.302h0.857v-19.466h0.136v19.602h-0.993v-0.136z"></path>
<path d="M10.331 30.574l-5.023-0.011v-0.135l5.023 0.011z"></path>
<path d="M21.949 30.574l-5.023-0.011v-0.135l5.023 0.011z"></path>
</symbol>
<symbol id="icon-foma-header" viewBox="0 0 104 32">
<path fill="#fefefe" style="fill: var(--color1, #fefefe)" d="M-0.011-0.011c34.581 0 69.161 0 103.742 0 0 10.667 0 21.333 0 32-34.581 0-69.161 0-103.742 0 0-10.667 0-21.333 0-32z"></path>
<path fill="#010101" style="fill: var(--color2, #010101)" d="M92.312 0.57c0.738-0.010 1.272 0.312 1.602 0.968 0.12 0.296 0.228 0.598 0.323 0.903 1.88 7.619 3.787 15.232 5.72 22.839 0.184 0.444 0.446 0.834 0.785 1.172 0.463 0.453 0.979 0.833 1.548 1.14 0.652 0.509 0.906 1.173 0.763 1.989-0.27 0.913-0.879 1.407-1.828 1.484-0.14-0.009-0.28-0.020-0.419-0.032-1.195-0.44-2.4-0.856-3.613-1.247-2.158-0.606-4.322-1.186-6.495-1.742-1.107-0.419-1.555-1.211-1.344-2.376 0.249-0.765 0.769-1.228 1.559-1.387 0.402-0.025 0.803-0.057 1.204-0.097-0.305-1.501-0.62-2.999-0.946-4.495-1.465-0.397-2.934-0.777-4.409-1.14-0.367 1.292-0.725 2.586-1.075 3.882 0.007 0.025 0.014 0.050 0.022 0.075 0.551 0.311 1.11 0.608 1.677 0.892 0.899 0.583 1.197 1.389 0.892 2.419-0.421 0.944-1.149 1.342-2.183 1.194-2.297-0.48-4.598-0.938-6.903-1.376-0.957-0.19-1.534-0.76-1.731-1.71-0.067-0.924 0.31-1.595 1.129-2.011 0.172-0.074 0.352-0.124 0.538-0.151 0.244-0.006 0.488-0.020 0.731-0.043 0.19-0.050 0.351-0.147 0.484-0.29 0.116-0.139 0.217-0.29 0.301-0.452 1.859-5.165 3.729-10.327 5.613-15.484 0.263-0.836 0.492-1.682 0.688-2.538 0.111-0.505 0.401-0.859 0.871-1.065 0.087-0.019 0.173-0.040 0.258-0.065 0.69-0.011 1.379-0.054 2.065-0.129 0.258-0.027 0.509-0.085 0.753-0.172 0.083-0.090 0.173-0.173 0.269-0.247 0.293-0.383 0.677-0.619 1.151-0.71z"></path>
<path fill="#010101" style="fill: var(--color2, #010101)" d="M67.301 14.613c0.004-0.208 0-0.416-0.011-0.624-0.022 0.016-0.033 0.037-0.032 0.065-1.283 3.107-2.555 6.218-3.817 9.333-0.421 0.746-1.055 1.051-1.903 0.914-0.492-0.163-0.868-0.467-1.129-0.914-1.463-3.242-2.915-6.49-4.355-9.742 0.001-0.027-0.010-0.049-0.032-0.065-0.011 0.229-0.014 0.459-0.011 0.688-0.007 1.133-0.014 2.265-0.022 3.398-0.003 0.603 0.008 1.205 0.032 1.806 0.024 0.138 0.085 0.256 0.183 0.355 0.165 0.089 0.337 0.16 0.516 0.215 0.422 0.113 0.845 0.221 1.269 0.323 0.708 0.329 1.080 0.885 1.118 1.667-0.079 1-0.609 1.599-1.591 1.796-0.91-0.038-1.82-0.063-2.731-0.075-1.419 0.018-2.839 0.028-4.258 0.032-0.906-0.161-1.44-0.695-1.602-1.602-0.057-0.85 0.29-1.47 1.043-1.86 0.253-0.092 0.511-0.171 0.774-0.237 0.454-0.182 0.716-0.515 0.785-1 0.208-2.294 0.412-4.588 0.613-6.882 0.021-0.111 0.035-0.226 0.043-0.344 0.128-1.571 0.268-3.141 0.419-4.71 0.046-0.465 0.074-0.931 0.086-1.398-0.054-0.090-0.13-0.158-0.226-0.204-0.446-0.072-0.89-0.151-1.333-0.237-1.067-0.302-1.558-1.008-1.473-2.118 0.18-0.775 0.657-1.259 1.43-1.452 0.114-0.022 0.228-0.036 0.344-0.043 2.065-0.030 4.129-0.052 6.194-0.065 0.725 0.058 1.244 0.413 1.559 1.065 0.032 0.092 0.061 0.185 0.086 0.28 0.055 0.39 0.148 0.77 0.28 1.14 0.204 0.475 0.412 0.948 0.624 1.419 1.084 2.634 2.174 5.265 3.269 7.892 0.994-2.312 1.984-4.627 2.968-6.946 0.129-0.366 0.237-0.739 0.323-1.118 0.122-0.66 0.244-1.319 0.366-1.978 0.119-0.594 0.403-1.092 0.849-1.495 0.287-0.211 0.61-0.333 0.968-0.366 2.172-0.035 4.344-0.050 6.516-0.043 1.164 0.252 1.684 0.972 1.559 2.161-0.189 0.763-0.666 1.239-1.43 1.43-0.265 0.020-0.531 0.042-0.796 0.065-0.301 0.086-0.505 0.275-0.613 0.57-0.097 0.323-0.155 0.652-0.172 0.989-0.014 0.344-0.014 0.688 0 1.032 0.239 4.259 0.489 8.517 0.753 12.774 0.083 0.463 0.345 0.775 0.785 0.935 0.297 0.074 0.584 0.175 0.86 0.301 0.947 0.63 1.18 1.465 0.699 2.505-0.389 0.602-0.945 0.91-1.667 0.925-1.683-0.211-3.368-0.408-5.054-0.591-1.374-0.126-2.75-0.212-4.129-0.258-0.908-0.169-1.428-0.711-1.559-1.624-0.049-0.716 0.213-1.286 0.785-1.71 0.189-0.134 0.397-0.227 0.624-0.28 0.43-0.070 0.86-0.139 1.29-0.204-0.021-1.964-0.043-3.928-0.065-5.892z"></path>
<path fill="#020202" style="fill: var(--color3, #020202)" d="M38.011 1.645c3.658-0.086 6.708 1.219 9.151 3.914 2.347 2.842 3.193 6.089 2.538 9.742-0.75 3.357-2.582 5.934-5.495 7.731-3.049 1.716-6.247 2.053-9.591 1.011-3.295-1.201-5.606-3.427-6.935-6.677-0.812-2.206-0.963-4.456-0.452-6.753 0.862-3.329 2.78-5.849 5.753-7.559 1.572-0.845 3.25-1.314 5.032-1.409z"></path>
<path fill="#fefefe" style="fill: var(--color1, #fefefe)" d="M92.333 1.796c0.086-0.004 0.172 0 0.258 0.011 0.154 0.118 0.258 0.272 0.312 0.462 0.093 0.27 0.179 0.543 0.258 0.817 1.826 7.48 3.69 14.95 5.591 22.409 0.212 0.654 0.556 1.227 1.032 1.72 0.529 0.529 1.121 0.977 1.774 1.344 0.301 0.223 0.391 0.514 0.269 0.871-0.192 0.37-0.49 0.496-0.892 0.376-1.358-0.519-2.734-0.985-4.129-1.398-1.892-0.502-3.784-1.003-5.677-1.505-0.599-0.197-0.767-0.581-0.505-1.151 0.126-0.155 0.288-0.251 0.484-0.29 0.659-0.016 1.311-0.088 1.957-0.215 0.217-0.059 0.343-0.199 0.376-0.419 0.017-0.152 0.010-0.302-0.022-0.452-0.372-1.734-0.745-3.468-1.118-5.204-0.097-0.313-0.301-0.517-0.613-0.613-1.8-0.463-3.6-0.929-5.398-1.398-0.169-0.048-0.302-0.002-0.398 0.14-0.044 0.090-0.080 0.183-0.108 0.28-0.444 1.545-0.874 3.093-1.29 4.645-0.071 0.457 0.054 0.848 0.376 1.172 0.147 0.106 0.297 0.206 0.452 0.301 0.509 0.265 1.017 0.53 1.527 0.796 0.378 0.303 0.446 0.665 0.204 1.086-0.188 0.206-0.421 0.288-0.699 0.247-2.349-0.484-4.7-0.957-7.054-1.419-0.591-0.196-0.766-0.579-0.527-1.151 0.12-0.166 0.281-0.263 0.484-0.29 0.751 0.065 1.393-0.161 1.925-0.677 0.274-0.296 0.489-0.633 0.645-1.011 1.829-5.094 3.672-10.184 5.527-15.269 0.277-0.849 0.513-1.709 0.71-2.581 0.034-0.132 0.077-0.261 0.129-0.387 0.823-0.021 1.644-0.090 2.462-0.204 0.353-0.046 0.676-0.168 0.968-0.366 0.241-0.223 0.477-0.449 0.71-0.677z"></path>
<path fill="#010101" style="fill: var(--color2, #010101)" d="M8.376 26.376c0.012-0.001 0.019-0.008 0.021-0.021-0.092-0.021-0.185-0.029-0.28-0.021-2.93-0.179-5.048-1.577-6.355-4.194-0.663-1.5-0.935-3.070-0.817-4.71 0.306-3.216 1.672-5.879 4.097-7.989 1.414-1.18 3.013-2.023 4.796-2.527 0.021-0.312 0.029-0.627 0.021-0.946-0.065 0-0.129 0-0.194 0-0.823-0.032-1.407-0.419-1.753-1.161-0.224-0.609-0.181-1.197 0.129-1.763 0.397-0.518 0.924-0.808 1.581-0.871 2.337-0.038 4.674-0.070 7.011-0.097 0.664-0.062 1.259 0.107 1.785 0.505 0.567 0.585 0.729 1.269 0.484 2.054-0.055 0.123-0.108 0.245-0.161 0.366 1.127-0.017 2.216 0.173 3.269 0.57 1.568 0.658 2.726 1.751 3.473 3.28 0.66 1.471 0.918 3.012 0.774 4.624-0.427 3.726-2.108 6.74-5.043 9.043-0.812 0.595-1.679 1.104-2.602 1.527 0.848 0.358 1.239 1 1.172 1.925-0.101 0.659-0.448 1.136-1.043 1.43-1.603 0.408-3.208 0.802-4.817 1.183-1.484 0.375-2.961 0.776-4.43 1.204-0.931 0.128-1.602-0.227-2.011-1.065-0.314-1.019-0.017-1.8 0.892-2.344z"></path>
<path fill="#fefefe" style="fill: var(--color1, #fefefe)" d="M73.624 2.677c0.559-0.004 1.118 0 1.677 0.011 0.385 0.099 0.553 0.346 0.505 0.742-0.068 0.24-0.222 0.394-0.462 0.462-1.353-0.050-2.174 0.585-2.462 1.903-0.095 0.479-0.134 0.963-0.118 1.452 0.001 0.369 0.012 0.739 0.032 1.108 0.243 4.093 0.486 8.186 0.731 12.28 0.128 0.841 0.569 1.454 1.323 1.839 0.292 0.126 0.593 0.226 0.903 0.301 0.428 0.287 0.478 0.631 0.151 1.032-0.127 0.094-0.271 0.148-0.43 0.161-1.646-0.218-3.295-0.415-4.946-0.591-1.374-0.119-2.751-0.205-4.129-0.258-0.304-0.046-0.479-0.221-0.527-0.527-0.013-0.389 0.17-0.629 0.548-0.72 0.431-0.065 0.861-0.136 1.29-0.215 0.489-0.102 0.772-0.399 0.849-0.892 0.014-0.111 0.025-0.222 0.032-0.333-0.058-3.717-0.112-7.434-0.161-11.151-0.072-0.172-0.198-0.225-0.376-0.161-0.053 0.031-0.1 0.071-0.14 0.118-1.849 4.53-3.698 9.060-5.548 13.591-0.144 0.278-0.363 0.36-0.656 0.247-0.133-0.119-0.237-0.259-0.312-0.419-1.986-4.464-3.975-8.926-5.968-13.387-0.124-0.16-0.282-0.203-0.473-0.129-0.063 0.046-0.102 0.107-0.118 0.183-0.027 3.369-0.041 6.738-0.043 10.108 0.033 0.522 0.238 0.962 0.613 1.323 0.4 0.253 0.83 0.439 1.29 0.559 0.25 0.056 0.5 0.106 0.753 0.151 0.431 0.185 0.542 0.489 0.333 0.914-0.142 0.187-0.332 0.273-0.57 0.258-0.437-0.034-0.874-0.059-1.312-0.075-1.778 0.001-3.555 0.001-5.333 0-0.364-0.151-0.504-0.419-0.419-0.806 0.067-0.146 0.171-0.257 0.312-0.333 0.324-0.083 0.639-0.191 0.946-0.323 0.685-0.355 1.111-0.911 1.28-1.667 0.132-1.319 0.261-2.638 0.387-3.957 0.276-3.212 0.559-6.424 0.849-9.634-0.071-0.739-0.458-1.23-1.161-1.473-0.432-0.064-0.862-0.136-1.29-0.215-0.541-0.117-0.723-0.436-0.548-0.957 0.097-0.14 0.23-0.23 0.398-0.269 2.114-0.053 4.229-0.075 6.344-0.065 0.219 0.039 0.359 0.165 0.419 0.376 0.086 0.54 0.23 1.063 0.43 1.57 0.295 0.655 0.582 1.315 0.86 1.978 1.304 3.167 2.609 6.336 3.914 9.505 0.030 0.062 0.077 0.105 0.14 0.129 0.049-0.009 0.081-0.038 0.097-0.086 1.286-3.045 2.583-6.084 3.892-9.118 0.371-0.994 0.622-2.019 0.753-3.075 0.052-0.404 0.174-0.784 0.366-1.14 0.103-0.135 0.235-0.225 0.398-0.269 1.566-0.011 3.129-0.028 4.688-0.054z"></path>
<path fill="#fefefe" style="fill: var(--color1, #fefefe)" d="M38.011 2.763c3.312-0.087 6.075 1.089 8.29 3.527 2.028 2.443 2.816 5.246 2.366 8.409-0.593 3.22-2.281 5.683-5.065 7.387-2.501 1.417-5.154 1.783-7.957 1.097-3.416-1.010-5.756-3.179-7.021-6.505-1.091-3.365-0.654-6.512 1.312-9.441 1.536-2.123 3.576-3.517 6.118-4.183 0.648-0.152 1.3-0.248 1.957-0.29z"></path>
<path fill="#fefefe" style="fill: var(--color1, #fefefe)" d="M11 7.86c0.021 0 0.043 0 0.065 0 0-0.502 0-1.004 0-1.505 0.009-0.331-0.002-0.66-0.032-0.989-0.058-0.309-0.241-0.499-0.548-0.57-0.3-0.025-0.601-0.040-0.903-0.043-0.455-0.11-0.652-0.4-0.591-0.871 0.050-0.208 0.176-0.348 0.376-0.419 0.104-0.042 0.212-0.071 0.323-0.086 2.466-0.035 4.932-0.064 7.398-0.086 0.598 0.082 0.817 0.415 0.656 1-0.081 0.146-0.199 0.25-0.355 0.312-0.292 0.053-0.586 0.096-0.882 0.129-0.215 0.081-0.34 0.236-0.376 0.462-0.018 0.452-0.014 0.903 0.011 1.355 1.137-0.292 2.291-0.396 3.462-0.312 2.782 0.298 4.534 1.793 5.258 4.484 0.284 1.251 0.298 2.506 0.043 3.763-0.74 3.378-2.571 5.976-5.495 7.796-1.024 0.588-2.11 1.028-3.258 1.323-0.017 0.295-0.010 0.588 0.021 0.882 0.024 0.158 0.081 0.301 0.172 0.43 0.122 0.079 0.255 0.133 0.398 0.161 0.451 0.038 0.903 0.067 1.355 0.086 0.421 0.129 0.568 0.405 0.441 0.828-0.072 0.169-0.198 0.28-0.376 0.333-2.028 0.468-4.050 0.962-6.065 1.484-0.942 0.255-1.881 0.52-2.817 0.796-0.512 0.018-0.745-0.229-0.699-0.742 0.049-0.123 0.117-0.234 0.204-0.333 0.607-0.335 1.188-0.708 1.742-1.118 0.333-0.275 0.508-0.63 0.527-1.065 0.011-0.165 0.014-0.33 0.011-0.495-1.154 0.291-2.323 0.367-3.505 0.226-2.3-0.365-3.909-1.615-4.828-3.753-0.492-1.273-0.686-2.592-0.581-3.957 0.375-3.156 1.834-5.675 4.376-7.559 1.355-0.95 2.846-1.599 4.473-1.946z"></path>
<path fill="#020202" style="fill: var(--color3, #020202)" d="M37.839 6.097c0.925-0.077 1.785 0.121 2.581 0.591 0.439 0.281 0.772 0.658 1 1.129 0.010 0.219-0.048 0.419-0.172 0.602-0.297 0.415-0.62 0.809-0.968 1.183-0.141 0.248-0.206 0.513-0.194 0.796 0.050 0.326 0.24 0.498 0.57 0.516 0.417-0.035 0.79-0.182 1.118-0.441 0.302-0.309 0.596-0.624 0.882-0.946 0.271-0.18 0.558-0.209 0.86-0.086 0.369 0.197 0.652 0.48 0.849 0.849 1.13 2.002 1.023 3.93-0.323 5.785-0.275 0.338-0.623 0.456-1.043 0.355-0.103-0.041-0.197-0.098-0.28-0.172-0.301-0.316-0.617-0.617-0.946-0.903-0.127-0.088-0.263-0.16-0.409-0.215-0.423-0.102-0.749 0.031-0.978 0.398-0.137 0.295-0.123 0.582 0.043 0.86 0.469 0.376 0.871 0.813 1.204 1.312 0.19 0.321 0.183 0.636-0.022 0.946-0.69 0.899-1.604 1.397-2.742 1.495-1.328 0.052-2.478-0.367-3.452-1.258-0.117-0.155-0.217-0.32-0.301-0.495-0.032-0.135-0.039-0.271-0.022-0.409 0.037-0.11 0.080-0.217 0.129-0.323 0.263-0.335 0.543-0.658 0.839-0.968 0.185-0.229 0.314-0.487 0.387-0.774 0.034-0.323-0.106-0.528-0.419-0.613-0.079-0.014-0.158-0.014-0.237 0-0.151 0.041-0.294 0.098-0.43 0.172-0.115 0.086-0.229 0.172-0.344 0.258-0.244 0.251-0.488 0.502-0.731 0.753-0.292 0.274-0.622 0.331-0.989 0.172-0.487-0.294-0.863-0.691-1.129-1.194-0.582-1.343-0.632-2.705-0.151-4.086 0.222-0.601 0.569-1.114 1.043-1.538 0.412-0.24 0.799-0.205 1.161 0.108 0.288 0.331 0.604 0.632 0.946 0.903 0.306 0.197 0.628 0.233 0.968 0.108 0.161-0.119 0.248-0.28 0.258-0.484-0.022-0.244-0.104-0.467-0.247-0.667-0.206-0.292-0.442-0.557-0.71-0.796-0.118-0.136-0.226-0.279-0.323-0.43-0.163-0.347-0.156-0.691 0.022-1.032 0.577-0.767 1.341-1.237 2.29-1.409 0.14-0.017 0.276-0.035 0.409-0.054z"></path>
<path fill="#010101" style="fill: var(--color2, #010101)" d="M89.172 6.14c0.164-0.011 0.29 0.054 0.376 0.194 0.68 3.135 1.347 6.275 2 9.419 0.006 0.373-0.177 0.52-0.548 0.441-1.387-0.356-2.77-0.721-4.151-1.097-0.060-0.039-0.114-0.086-0.161-0.14-0.069-0.215-0.069-0.43 0-0.645 0.749-2.66 1.502-5.32 2.258-7.979 0.067-0.078 0.142-0.142 0.226-0.194z"></path>
<path fill="#7e7e7e" style="fill: var(--color4, #7e7e7e)" d="M9.667 5.968c0.065 0 0.129 0 0.194 0 0.007 0.319-0 0.635-0.021 0.946 0-0.308 0-0.617 0-0.925-0.062 0.007-0.119-0.001-0.172-0.021z"></path>
<path fill="#fdfdfd" style="fill: var(--color5, #fdfdfd)" d="M37.903 7.28c0.817-0.081 1.584 0.073 2.301 0.462 0.091 0.063 0.177 0.131 0.258 0.204-0.471 0.518-0.861 1.092-1.172 1.72-0.43 1.104-0.090 1.853 1.022 2.247 0.283 0.050 0.562 0.035 0.839-0.043 0.291-0.085 0.563-0.207 0.817-0.366 0.2-0.157 0.394-0.322 0.581-0.495 0.154-0.179 0.319-0.347 0.495-0.505 0.441 0.445 0.731 0.975 0.871 1.591 0.212 0.868 0.133 1.706-0.237 2.516-0.154 0.269-0.352 0.502-0.591 0.699-0.022 0.014-0.043 0.014-0.065 0-0.303-0.28-0.604-0.56-0.903-0.839-0.564-0.358-1.173-0.458-1.828-0.301-0.398 0.129-0.695 0.376-0.892 0.742-0.239 0.393-0.289 0.808-0.151 1.247 0.172 0.544 0.452 1.025 0.839 1.441 0.181 0.177 0.356 0.356 0.527 0.538-0.051 0.105-0.123 0.195-0.215 0.269-0.34 0.252-0.72 0.417-1.14 0.495-0.818 0.145-1.621 0.087-2.409-0.172-0.334-0.115-0.625-0.298-0.871-0.548-0.016-0.024-0.012-0.046 0.011-0.065 0.122-0.083 0.226-0.183 0.312-0.301 0.281-0.354 0.525-0.734 0.731-1.14 0.217-0.442 0.26-0.901 0.129-1.376-0.14-0.398-0.409-0.667-0.806-0.806-0.423-0.157-0.846-0.157-1.269 0-0.204 0.091-0.397 0.199-0.581 0.323-0.312 0.255-0.609 0.523-0.892 0.806-0.064-0.057-0.121-0.121-0.172-0.194-0.712-1.248-0.813-2.545-0.301-3.892 0.112-0.24 0.241-0.47 0.387-0.688 0.196 0.21 0.393 0.422 0.591 0.634 0.487 0.38 1.039 0.566 1.656 0.559 0.775-0.123 1.231-0.571 1.366-1.344 0.025-0.765-0.219-1.432-0.731-2-0.191-0.191-0.381-0.381-0.57-0.57 0.268-0.245 0.576-0.431 0.925-0.559 0.371-0.141 0.751-0.238 1.14-0.29z"></path>
<path fill="#828282" style="fill: var(--color6, #828282)" d="M11.065 6.355c0 0.502 0 1.004 0 1.505-0.021 0-0.043 0-0.065 0 0.035-0.501 0.057-1.002 0.065-1.505z"></path>
<path fill="#010101" style="fill: var(--color2, #010101)" d="M16.505 7.946c0.829-0.035 1.507 0.266 2.032 0.903 0.471 0.603 0.808 1.277 1.011 2.021 0.407 1.547 0.521 3.117 0.344 4.71-0.133 1.473-0.527 2.871-1.183 4.194-0.314 0.594-0.719 1.121-1.215 1.581-0.397 0.339-0.849 0.58-1.355 0.72-0.021-4.688-0.029-9.376-0.021-14.065 0.131-0.027 0.26-0.048 0.387-0.065z"></path>
<path fill="#010101" style="fill: var(--color2, #010101)" d="M11.065 9.301c0 4.645 0 9.29 0 13.935 0 0.021 0 0.043 0 0.065-0.824 0.168-1.537-0.039-2.14-0.624-0.473-0.523-0.832-1.119-1.075-1.785-0.32-0.861-0.52-1.75-0.602-2.667-0.207-1.959 0.015-3.865 0.667-5.72 0.249-0.612 0.564-1.186 0.946-1.72 0.406-0.516 0.897-0.928 1.473-1.237 0.233-0.113 0.477-0.196 0.731-0.247z"></path>
<path fill="#fdfdfd" style="fill: var(--color5, #fdfdfd)" d="M17.366 9.387c0.373 0.356 0.649 0.779 0.828 1.269 0.397 1.111 0.587 2.258 0.57 3.441 0.011 1.577-0.272 3.097-0.849 4.559-0.163 0.376-0.353 0.734-0.57 1.075-0.014-1.72-0.021-3.444-0.021-5.172 0-1.731 0.014-3.455 0.043-5.172z"></path>
<path fill="#ececec" style="fill: var(--color7, #ececec)" d="M11.065 9.301c0.016-0.003 0.030 0.001 0.043 0.011-0.029 4.638-0.029 9.276 0 13.914-0.013 0.010-0.027 0.014-0.043 0.011 0-4.645 0-9.29 0-13.935z"></path>
<path fill="#414141" style="fill: var(--color8, #414141)" d="M17.366 9.387c-0.029 1.717-0.043 3.441-0.043 5.172 0 1.728 0.007 3.452 0.021 5.172-0.001 0.012-0.008 0.019-0.021 0.021-0.021-3.462-0.029-6.925-0.021-10.387 0.028-0.005 0.049 0.002 0.065 0.021z"></path>
<path fill="#fbfbfb" style="fill: var(--color9, #fbfbfb)" d="M89.108 10.14c0.346 1.504 0.668 3.017 0.968 4.538-0.698-0.162-1.393-0.334-2.086-0.516 0.381-1.338 0.754-2.678 1.118-4.021z"></path>
<path fill="#fdfdfd" style="fill: var(--color5, #fdfdfd)" d="M9.817 11.538c0.025 3.423 0.029 6.849 0.011 10.28-0.014-0.016-0.032-0.023-0.054-0.021-0.348-0.38-0.61-0.818-0.785-1.312-0.413-1.175-0.61-2.386-0.591-3.634-0.030-1.51 0.246-2.958 0.828-4.344 0.16-0.349 0.357-0.672 0.591-0.968z"></path>
<path fill="#d5d5d5" style="fill: var(--color10, #d5d5d5)" d="M9.774 21.796c0.021-0.002 0.039 0.005 0.054 0.021 0.018-3.43 0.014-6.857-0.011-10.28 0.010-0.021 0.021-0.042 0.032-0.065 0.014 3.462 0.014 6.925 0 10.387-0.033-0.014-0.058-0.036-0.075-0.065z"></path>
<path fill="#b7b7b7" style="fill: var(--color11, #b7b7b7)" d="M52.183 11.86c-0.008 0.118-0.022 0.233-0.043 0.344-0.009-0.121 0.005-0.235 0.043-0.344z"></path>
<path fill="#9d9d9d" style="fill: var(--color12, #9d9d9d)" d="M56.054 13.645c-0.014 0.208-0.029 0.416-0.043 0.624-0.004-0.229 0-0.459 0.011-0.688 0.022 0.016 0.033 0.037 0.032 0.065z"></path>
<path fill="#acacac" style="fill: var(--color13, #acacac)" d="M67.301 14.613c-0.014-0.186-0.029-0.373-0.043-0.559-0.001-0.027 0.010-0.049 0.032-0.065 0.011 0.208 0.014 0.416 0.011 0.624z"></path>
<path fill="#6a6a6a" style="fill: var(--color14, #6a6a6a)" d="M8.118 26.333c0.094-0.007 0.187 0 0.28 0.021-0.003 0.013-0.010 0.020-0.021 0.021-0.086-0.014-0.172-0.029-0.258-0.043z"></path>
</symbol>
<symbol id="icon-facebook" viewBox="0 0 27 32">
<path d="M27.429 24.571q0 2.125-1.509 3.634t-3.634 1.509h-3.429v-10.857h3.625l0.536-4h-4.161v-2.554q0-0.964 0.5-1.482t1.714-0.518l2.357-0.018v-3.696q-1.714-0.161-3.214-0.161-2.429 0-3.893 1.438t-1.464 4.027v2.964h-4v4h4v10.857h-9.714q-2.125 0-3.634-1.509t-1.509-3.634v-17.143q0-2.125 1.509-3.634t3.634-1.509h17.143q2.125 0 3.634 1.509t1.509 3.634v17.143z"></path>
</symbol>
<symbol id="icon-instagram" viewBox="0 0 32 32">
<path d="M11.469 5c-3.551 0-6.469 2.914-6.469 6.469v9.063c0 3.551 2.914 6.469 6.469 6.469h9.063c3.551 0 6.469-2.914 6.469-6.469v-9.063c0-3.551-2.914-6.469-6.469-6.469zM11.469 7h9.063c2.473 0 4.469 1.996 4.469 4.469v9.063c0 2.473-1.996 4.469-4.469 4.469h-9.063c-2.473 0-4.469-1.996-4.469-4.469v-9.063c0-2.473 1.996-4.469 4.469-4.469zM21.906 9.188c-0.504 0-0.906 0.402-0.906 0.906s0.402 0.906 0.906 0.906c0.504 0 0.906-0.402 0.906-0.906s-0.402-0.906-0.906-0.906zM16 10c-3.301 0-6 2.699-6 6s2.699 6 6 6c3.301 0 6-2.699 6-6s-2.699-6-6-6zM16 12c2.223 0 4 1.777 4 4s-1.777 4-4 4c-2.223 0-4-1.777-4-4s1.777-4 4-4z"></path>
</symbol>
<symbol id="icon-viber" viewBox="0 0 32 32">
<path d="M0 0h32v32h-32v-32z"></path>
<path d="M16.813 11.625c0.019-0.001 0.041-0.001 0.064-0.001 1.036 0 1.875 0.839 1.875 1.875 0 0.022-0 0.045-0.001 0.067l0-0.003M16.375 9.938c0.001 0 0.003 0 0.004 0 2.209 0 4 1.791 4 4 0 0.066-0.002 0.132-0.005 0.197l0-0.009M15.813 8.313c0.042-0.001 0.091-0.002 0.141-0.002 3.348 0 6.063 2.714 6.063 6.063 0 0.155-0.006 0.308-0.017 0.459l0.001-0.020"></path>
<path d="M18 17.125q0.625-0.813 1.5-0.25l2.25 1.688q0.5 0.625-0.438 1.75t-1.75 0.938q-3.313-0.75-6.375-3.75t-3.813-6.5q0-1.25 1.563-2.125 0.813-0.563 1.375 0.313l1.563 2.188q0.375 0.75-0.438 1.375c-2.438 0.938 3.188 7 4.563 4.375zM5.938 14.5c0 4.875 0.875 5.938 2.25 7.375 0.438 0.438 2 1.188 2.375 1.188v4.313c0 0.25 0.25 0.438 0.5 0.188l3.313-3.938 1.625 0.063c9 0 10.063-3.5 10.063-9.188s-1.063-9.188-10.063-9.188-10.063 3.5-10.063 9.188zM4.063 14.5c0-7.875 3.438-11.063 11.938-11.063s11.938 3.188 11.938 11.063-3.438 11.063-11.938 11.063c-0.625 0-1.125 0-2-0.125l-2.375 2.688c-0.438 0.5-1.75 0.688-1.75-0.813v-2.625c-0.375 0-1.25-0.375-2.438-1.125-1.188-0.813-3.375-2.75-3.375-9.063z"></path>
</symbol>
<symbol id="icon-telegram" viewBox="0 0 32 32">
<path d="M26.070 3.996c-0.336 0.016-0.652 0.113-0.934 0.223h-0.004c-0.285 0.113-1.641 0.684-3.699 1.547-2.059 0.867-4.73 1.992-7.383 3.109-5.297 2.23-10.504 4.426-10.504 4.426l0.063-0.023c0 0-0.359 0.117-0.734 0.375-0.191 0.125-0.402 0.297-0.586 0.566s-0.332 0.684-0.277 1.109c0.090 0.723 0.559 1.156 0.895 1.395 0.34 0.242 0.664 0.355 0.664 0.355h0.008l4.883 1.645c0.219 0.703 1.488 4.875 1.793 5.836 0.18 0.574 0.355 0.934 0.574 1.207 0.105 0.141 0.23 0.258 0.379 0.352 0.059 0.035 0.121 0.063 0.184 0.086 0.020 0.012 0.039 0.016 0.063 0.020l-0.051-0.012c0.016 0.004 0.027 0.016 0.039 0.020 0.039 0.012 0.066 0.016 0.117 0.023 0.773 0.234 1.395-0.246 1.395-0.246l0.035-0.027 2.883-2.625 4.832 3.707 0.109 0.047c1.008 0.441 2.027 0.195 2.566-0.238 0.543-0.438 0.754-0.996 0.754-0.996l0.035-0.090 3.734-19.129c0.105-0.473 0.133-0.914 0.016-1.344s-0.418-0.832-0.781-1.047c-0.367-0.219-0.73-0.285-1.066-0.27zM25.969 6.047c-0.004 0.063 0.008 0.055-0.020 0.176v0.012l-3.699 18.93c-0.016 0.027-0.043 0.086-0.117 0.145-0.078 0.063-0.141 0.102-0.465-0.027l-5.91-4.531-3.57 3.254 0.75-4.789c0 0 9.258-8.629 9.656-9s0.266-0.449 0.266-0.449c0.027-0.453-0.602-0.133-0.602-0.133l-12.176 7.543-0.004-0.020-5.836-1.969c-0.004 0-0.012-0.004-0.016-0.004 0.004 0 0.031-0.012 0.031-0.012l0.031-0.016 0.031-0.012c0 0 5.211-2.195 10.508-4.426 2.652-1.117 5.324-2.242 7.379-3.109 2.055-0.863 3.574-1.496 3.66-1.531 0.082-0.031 0.043-0.031 0.102-0.031z"></path>
</symbol>
<symbol id="icon-youtube" viewBox="0 0 27 32">
<path d="M17.339 22.214v3.768q0 1.196-0.696 1.196-0.411 0-0.804-0.393v-5.375q0.393-0.393 0.804-0.393 0.696 0 0.696 1.196zM23.375 22.232v0.821h-1.607v-0.821q0-1.214 0.804-1.214t0.804 1.214zM6.125 18.339h1.911v-1.679h-5.571v1.679h1.875v10.161h1.786v-10.161zM11.268 28.5h1.589v-8.821h-1.589v6.75q-0.536 0.75-1.018 0.75-0.321 0-0.375-0.375-0.018-0.054-0.018-0.625v-6.5h-1.589v6.982q0 0.875 0.143 1.304 0.214 0.661 1.036 0.661 0.857 0 1.821-1.089v0.964zM18.929 25.857v-3.518q0-1.304-0.161-1.768-0.304-1-1.268-1-0.893 0-1.661 0.964v-3.875h-1.589v11.839h1.589v-0.857q0.804 0.982 1.661 0.982 0.964 0 1.268-0.982 0.161-0.482 0.161-1.786zM24.964 25.679v-0.232h-1.625q0 0.911-0.036 1.089-0.125 0.643-0.714 0.643-0.821 0-0.821-1.232v-1.554h3.196v-1.839q0-1.411-0.482-2.071-0.696-0.911-1.893-0.911-1.214 0-1.911 0.911-0.5 0.661-0.5 2.071v3.089q0 1.411 0.518 2.071 0.696 0.911 1.929 0.911 1.286 0 1.929-0.946 0.321-0.482 0.375-0.964 0.036-0.161 0.036-1.036zM14.107 9.375v-3.75q0-1.232-0.768-1.232t-0.768 1.232v3.75q0 1.25 0.768 1.25t0.768-1.25zM26.946 22.786q0 4.179-0.464 6.25-0.25 1.054-1.036 1.768t-1.821 0.821q-3.286 0.375-9.911 0.375t-9.911-0.375q-1.036-0.107-1.83-0.821t-1.027-1.768q-0.464-2-0.464-6.25 0-4.179 0.464-6.25 0.25-1.054 1.036-1.768t1.839-0.839q3.268-0.357 9.893-0.357t9.911 0.357q1.036 0.125 1.83 0.839t1.027 1.768q0.464 2 0.464 6.25zM9.125 0h1.821l-2.161 7.125v4.839h-1.786v-4.839q-0.25-1.321-1.089-3.786-0.661-1.839-1.161-3.339h1.893l1.268 4.696zM15.732 5.946v3.125q0 1.446-0.5 2.107-0.661 0.911-1.893 0.911-1.196 0-1.875-0.911-0.5-0.679-0.5-2.107v-3.125q0-1.429 0.5-2.089 0.679-0.911 1.875-0.911 1.232 0 1.893 0.911 0.5 0.661 0.5 2.089zM21.714 3.054v8.911h-1.625v-0.982q-0.946 1.107-1.839 1.107-0.821 0-1.054-0.661-0.143-0.429-0.143-1.339v-7.036h1.625v6.554q0 0.589 0.018 0.625 0.054 0.393 0.375 0.393 0.482 0 1.018-0.768v-6.804h1.625z"></path>
</symbol>
<symbol id="icon-calendar" viewBox="0 0 26 32">
<path d="M2 28h4.5v-4.5h-4.5v4.5zM7.5 28h5v-4.5h-5v4.5zM2 22.5h4.5v-5h-4.5v5zM7.5 22.5h5v-5h-5v5zM2 16.5h4.5v-4.5h-4.5v4.5zM13.5 28h5v-4.5h-5v4.5zM7.5 16.5h5v-4.5h-5v4.5zM19.5 28h4.5v-4.5h-4.5v4.5zM13.5 22.5h5v-5h-5v5zM8 9v-4.5c0-0.135-0.049-0.253-0.148-0.352s-0.216-0.148-0.352-0.148h-1c-0.135 0-0.253 0.049-0.352 0.148s-0.148 0.216-0.148 0.352v4.5c0 0.135 0.049 0.253 0.148 0.352s0.216 0.148 0.352 0.148h1c0.135 0 0.253-0.050 0.352-0.148s0.148-0.216 0.148-0.352zM19.5 22.5h4.5v-5h-4.5v5zM13.5 16.5h5v-4.5h-5v4.5zM19.5 16.5h4.5v-4.5h-4.5v4.5zM20 9v-4.5c0-0.135-0.049-0.253-0.148-0.352s-0.216-0.148-0.352-0.148h-1c-0.135 0-0.253 0.049-0.352 0.148s-0.148 0.216-0.148 0.352v4.5c0 0.135 0.049 0.253 0.148 0.352s0.216 0.148 0.352 0.148h1c0.135 0 0.253-0.050 0.352-0.148s0.148-0.216 0.148-0.352zM26 8v20c0 0.542-0.198 1.010-0.594 1.406s-0.865 0.594-1.406 0.594h-22c-0.542 0-1.010-0.198-1.406-0.594s-0.594-0.865-0.594-1.406v-20c0-0.542 0.198-1.010 0.594-1.406s0.865-0.594 1.406-0.594h2v-1.5c0-0.688 0.245-1.276 0.734-1.766s1.078-0.734 1.766-0.734h1c0.688 0 1.276 0.245 1.766 0.734s0.734 1.078 0.734 1.766v1.5h6v-1.5c0-0.688 0.245-1.276 0.734-1.766s1.078-0.734 1.766-0.734h1c0.688 0 1.276 0.245 1.766 0.734s0.734 1.078 0.734 1.766v1.5h2c0.542 0 1.010 0.198 1.406 0.594s0.594 0.865 0.594 1.406z"></path>
</symbol>
<symbol id="icon-castle" viewBox="0 0 32 32">
<path d="M29.092 18.619h-0.566c-0.354 0-0.566 0.283-0.566 0.566v0.85h-1.345v-0.85c0-0.354-0.283-0.566-0.566-0.566h-0.566c-0.354 0-0.566 0.283-0.566 0.566v0.85h-1.487v-0.85c0-0.354-0.283-0.566-0.566-0.566h-1.204v-4.106h1.345c0.283 0 0.566-0.142 0.637-0.425 0.142-0.283 0.071-0.566-0.142-0.779l-6.796-6.655c-0.071-0.071-0.212-0.142-0.354-0.212v-2.619h4.743c0.425 0 0.708-0.354 0.708-0.708v-1.982c0-0.425-0.354-0.708-0.708-0.708h-4.743v-0.142c0-0.142-0.142-0.283-0.283-0.283h-0.212c-0.142 0-0.283 0.142-0.283 0.283v6.159c-0.142 0.071-0.212 0.142-0.283 0.212l-6.655 6.655c-0.212 0.212-0.283 0.496-0.142 0.779s0.354 0.425 0.637 0.425h1.345v4.106h-1.133c-0.354 0-0.566 0.283-0.566 0.566v0.85h-1.487v-0.85c0-0.354-0.283-0.566-0.566-0.566h-0.637c-0.354 0-0.566 0.283-0.566 0.566v0.85h-1.416v-0.85c0-0.354-0.283-0.566-0.566-0.566h-0.566c-0.354 0-0.566 0.283-0.566 0.566v4.106c0 0.354 0.283 0.566 0.566 0.566h1.345v7.575c0 0.354 0.283 0.566 0.566 0.566h7.292v-6.584c0-1.416 1.133-2.549 2.549-2.549h2.619c1.416 0 2.549 1.133 2.549 2.549v6.584h7.221c0.354 0 0.566-0.283 0.566-0.566v-7.575h1.345c0.354 0 0.566-0.283 0.566-0.566v-4.106c0.071-0.354-0.212-0.566-0.496-0.566z"></path>
</symbol>
<symbol id="icon-desktop" viewBox="0 0 30 32">
<path d="M6.5 22c-0.688 0-1.276-0.245-1.766-0.734s-0.734-1.078-0.734-1.766v-11c0-0.688 0.245-1.276 0.734-1.766s1.078-0.734 1.766-0.734h17c0.688 0 1.276 0.245 1.766 0.734s0.734 1.078 0.734 1.766v11c0 0.688-0.245 1.276-0.734 1.766s-1.078 0.734-1.766 0.734h-17zM6 8.5v11c0 0.135 0.049 0.253 0.148 0.352s0.216 0.148 0.352 0.148h17c0.135 0 0.253-0.049 0.352-0.148s0.148-0.216 0.148-0.352v-11c0-0.135-0.049-0.253-0.148-0.352s-0.216-0.148-0.352-0.148h-17c-0.135 0-0.253 0.050-0.352 0.148s-0.148 0.216-0.148 0.352zM27.5 23h2.5v1.5c0 0.417-0.245 0.771-0.734 1.063s-1.078 0.438-1.766 0.438h-25c-0.688 0-1.276-0.146-1.766-0.438s-0.734-0.646-0.734-1.063v-1.5h27.5zM16.25 24.5c0.167 0 0.25-0.083 0.25-0.25s-0.083-0.25-0.25-0.25h-2.5c-0.167 0-0.25 0.083-0.25 0.25s0.083 0.25 0.25 0.25h2.5z"></path>
</symbol>
<symbol id="icon-lecture" viewBox="0 0 30 32">
<path d="M9.266 16c-1.688 0.052-3.068 0.719-4.141 2h-2.094c-0.854 0-1.573-0.211-2.156-0.633s-0.875-1.039-0.875-1.852c0-3.677 0.646-5.516 1.938-5.516 0.063 0 0.289 0.109 0.68 0.328s0.898 0.44 1.523 0.664 1.245 0.336 1.859 0.336c0.698 0 1.391-0.12 2.078-0.359-0.052 0.385-0.078 0.729-0.078 1.031 0 1.448 0.422 2.781 1.266 4zM26 25.953c0 1.25-0.38 2.237-1.141 2.961s-1.771 1.086-3.031 1.086h-13.656c-1.26 0-2.271-0.362-3.031-1.086s-1.141-1.711-1.141-2.961c0-0.552 0.018-1.091 0.055-1.617s0.109-1.094 0.219-1.703 0.247-1.174 0.414-1.695 0.391-1.029 0.672-1.523 0.604-0.917 0.969-1.266c0.365-0.349 0.81-0.628 1.336-0.836s1.107-0.313 1.742-0.313c0.104 0 0.328 0.112 0.672 0.336s0.724 0.474 1.141 0.75c0.417 0.276 0.974 0.526 1.672 0.75s1.401 0.336 2.109 0.336 1.411-0.112 2.109-0.336 1.255-0.474 1.672-0.75c0.417-0.276 0.797-0.526 1.141-0.75s0.568-0.336 0.672-0.336c0.635 0 1.216 0.104 1.742 0.313s0.971 0.487 1.336 0.836c0.365 0.349 0.688 0.771 0.969 1.266s0.505 1.003 0.672 1.523 0.305 1.086 0.414 1.695 0.182 1.177 0.219 1.703 0.055 1.065 0.055 1.617zM10 6c0 1.104-0.391 2.047-1.172 2.828s-1.724 1.172-2.828 1.172-2.047-0.391-2.828-1.172-1.172-1.724-1.172-2.828 0.391-2.047 1.172-2.828 1.724-1.172 2.828-1.172 2.047 0.391 2.828 1.172 1.172 1.724 1.172 2.828zM21 12c0 1.656-0.586 3.070-1.758 4.242s-2.586 1.758-4.242 1.758-3.070-0.586-4.242-1.758-1.758-2.586-1.758-4.242 0.586-3.070 1.758-4.242 2.586-1.758 4.242-1.758 3.070 0.586 4.242 1.758 1.758 2.586 1.758 4.242zM30 15.516c0 0.813-0.292 1.43-0.875 1.852s-1.302 0.633-2.156 0.633h-2.094c-1.073-1.281-2.453-1.948-4.141-2 0.844-1.219 1.266-2.552 1.266-4 0-0.302-0.026-0.646-0.078-1.031 0.688 0.24 1.38 0.359 2.078 0.359 0.615 0 1.234-0.112 1.859-0.336s1.133-0.445 1.523-0.664 0.617-0.328 0.68-0.328c1.292 0 1.938 1.839 1.938 5.516zM28 6c0 1.104-0.391 2.047-1.172 2.828s-1.724 1.172-2.828 1.172-2.047-0.391-2.828-1.172-1.172-1.724-1.172-2.828 0.391-2.047 1.172-2.828 1.724-1.172 2.828-1.172 2.047 0.391 2.828 1.172 1.172 1.724 1.172 2.828z"></path>
</symbol>
<symbol id="icon-location" viewBox="0 0 16 32">
<path d="M12 12c0-1.104-0.391-2.047-1.172-2.828s-1.724-1.172-2.828-1.172-2.047 0.391-2.828 1.172-1.172 1.724-1.172 2.828 0.391 2.047 1.172 2.828 1.724 1.172 2.828 1.172 2.047-0.391 2.828-1.172 1.172-1.724 1.172-2.828zM16 12c0 1.135-0.172 2.068-0.516 2.797l-5.688 12.094c-0.167 0.344-0.414 0.615-0.742 0.813s-0.68 0.297-1.055 0.297-0.727-0.099-1.055-0.297-0.57-0.469-0.727-0.813l-5.703-12.094c-0.344-0.729-0.516-1.661-0.516-2.797 0-2.208 0.781-4.094 2.344-5.656s3.448-2.344 5.656-2.344 4.094 0.781 5.656 2.344 2.344 3.448 2.344 5.656z"></path>
</symbol>
<symbol id="icon-mail" viewBox="0 0 28 32">
<path d="M26 25.5v-12c-0.333 0.375-0.693 0.719-1.078 1.031-2.792 2.146-5.010 3.906-6.656 5.281-0.531 0.448-0.964 0.797-1.297 1.047s-0.784 0.503-1.352 0.758c-0.568 0.255-1.102 0.383-1.602 0.383h-0.031c-0.5 0-1.034-0.128-1.602-0.383s-1.018-0.508-1.352-0.758-0.766-0.599-1.297-1.047c-1.646-1.375-3.865-3.135-6.656-5.281-0.385-0.313-0.745-0.656-1.078-1.031v12c0 0.135 0.050 0.253 0.148 0.352s0.216 0.148 0.352 0.148h23c0.135 0 0.253-0.049 0.352-0.148s0.148-0.216 0.148-0.352zM26 9.078v-0.383c0 0-0.003-0.068-0.008-0.203s-0.021-0.2-0.047-0.195-0.055-0.042-0.086-0.141-0.078-0.138-0.141-0.117-0.135 0.008-0.219-0.039h-23c-0.135 0-0.253 0.050-0.352 0.148s-0.148 0.216-0.148 0.352c0 1.75 0.766 3.229 2.297 4.438 2.010 1.583 4.099 3.234 6.266 4.953 0.063 0.052 0.245 0.206 0.547 0.461s0.542 0.451 0.719 0.586 0.409 0.299 0.695 0.492 0.55 0.336 0.789 0.43 0.464 0.141 0.672 0.141h0.031c0.208 0 0.432-0.047 0.672-0.141s0.503-0.237 0.789-0.43 0.518-0.357 0.695-0.492c0.177-0.135 0.417-0.331 0.719-0.586s0.484-0.409 0.547-0.461c2.167-1.719 4.255-3.37 6.266-4.953 0.563-0.448 1.086-1.050 1.57-1.805s0.727-1.44 0.727-2.055zM28 8.5v17c0 0.688-0.245 1.276-0.734 1.766s-1.078 0.734-1.766 0.734h-23c-0.688 0-1.276-0.245-1.766-0.734s-0.734-1.078-0.734-1.766v-17c0-0.688 0.245-1.276 0.734-1.766s1.078-0.734 1.766-0.734h23c0.688 0 1.276 0.245 1.766 0.734s0.734 1.078 0.734 1.766z"></path>
</symbol>
<symbol id="icon-phone" viewBox="0 0 22 32">
<path d="M22 21.375c0 0.281-0.052 0.648-0.156 1.102s-0.214 0.81-0.328 1.070c-0.219 0.521-0.854 1.073-1.906 1.656-0.979 0.531-1.948 0.797-2.906 0.797-0.281 0-0.555-0.018-0.82-0.055s-0.565-0.102-0.898-0.195-0.581-0.169-0.742-0.227-0.45-0.164-0.867-0.32-0.672-0.25-0.766-0.281c-1.021-0.365-1.932-0.797-2.734-1.297-1.333-0.823-2.711-1.945-4.133-3.367s-2.544-2.799-3.367-4.133c-0.5-0.802-0.932-1.714-1.297-2.734-0.031-0.094-0.125-0.349-0.281-0.766s-0.263-0.706-0.32-0.867-0.133-0.409-0.227-0.742-0.159-0.633-0.195-0.898-0.055-0.539-0.055-0.82c0-0.958 0.266-1.927 0.797-2.906 0.583-1.052 1.135-1.688 1.656-1.906 0.26-0.115 0.617-0.224 1.070-0.328s0.82-0.156 1.102-0.156c0.146 0 0.255 0.016 0.328 0.047 0.188 0.063 0.464 0.458 0.828 1.188 0.115 0.198 0.271 0.479 0.469 0.844s0.38 0.695 0.547 0.992 0.328 0.575 0.484 0.836c0.031 0.042 0.122 0.172 0.273 0.391s0.263 0.404 0.336 0.555 0.109 0.3 0.109 0.445c0 0.208-0.148 0.469-0.445 0.781s-0.62 0.599-0.969 0.859-0.672 0.536-0.969 0.828-0.445 0.531-0.445 0.719c0 0.094 0.026 0.211 0.078 0.352s0.096 0.247 0.133 0.32 0.109 0.198 0.219 0.375 0.169 0.276 0.18 0.297c0.792 1.427 1.698 2.651 2.719 3.672s2.245 1.927 3.672 2.719c0.021 0.010 0.12 0.070 0.297 0.18s0.302 0.182 0.375 0.219 0.18 0.081 0.32 0.133 0.258 0.078 0.352 0.078c0.188 0 0.427-0.148 0.719-0.445s0.568-0.62 0.828-0.969 0.547-0.672 0.859-0.969 0.573-0.445 0.781-0.445c0.146 0 0.294 0.036 0.445 0.109s0.336 0.185 0.555 0.336 0.349 0.242 0.391 0.273c0.26 0.156 0.539 0.318 0.836 0.484s0.628 0.349 0.992 0.547 0.646 0.354 0.844 0.469c0.729 0.365 1.125 0.641 1.188 0.828 0.031 0.073 0.047 0.182 0.047 0.328z"></path>
</symbol>
<symbol id="icon-topUp" viewBox="0 0 32 32">
<path d="M15 20.933h2v-6.067l2.467 2.467 1.4-1.4-4.867-4.867-4.867 4.867 1.4 1.4 2.467-2.467zM16 29.333q-2.733 0-5.167-1.050t-4.25-2.867-2.867-4.25-1.050-5.167q0-2.767 1.050-5.2t2.867-4.233 4.25-2.85 5.167-1.050q2.767 0 5.2 1.050t4.233 2.85 2.85 4.233 1.050 5.2q0 2.733-1.050 5.167t-2.85 4.25-4.233 2.867-5.2 1.050zM16 27.333q4.733 0 8.033-3.317t3.3-8.017q0-4.733-3.3-8.033t-8.033-3.3q-4.7 0-8.017 3.3t-3.317 8.033q0 4.7 3.317 8.017t8.017 3.317z"></path>
</symbol>
</defs>
</svg>
